<?xml version="1.0" encoding="UTF-8" standalone="no"?>
<!-- Created with Inkscape (http://www.inkscape.org/) -->

<svg
   xmlns:dc="http://purl.org/dc/elements/1.1/"
   xmlns:cc="http://creativecommons.org/ns#"
   xmlns:rdf="http://www.w3.org/1999/02/22-rdf-syntax-ns#"
   xmlns:svg="http://www.w3.org/2000/svg"
   xmlns="http://www.w3.org/2000/svg"
   xmlns:sodipodi="http://sodipodi.sourceforge.net/DTD/sodipodi-0.dtd"
   xmlns:inkscape="http://www.inkscape.org/namespaces/inkscape"
   version="1.1"
   id="svg2"
   xml:space="preserve"
   width="530.57544"
   height="854.396"
   viewBox="0 0 530.57545 854.396"
   sodipodi:docname="fig.svg"
   inkscape:version="0.92.3 (2405546, 2018-03-11)"><metadata
     id="metadata8"><rdf:RDF><cc:Work
         rdf:about=""><dc:format>image/svg+xml</dc:format><dc:type
           rdf:resource="http://purl.org/dc/dcmitype/StillImage" /><dc:title></dc:title></cc:Work></rdf:RDF></metadata><defs
     id="defs6"><marker
       inkscape:isstock="true"
       style="overflow:visible"
       id="marker1906"
       refX="0"
       refY="0"
       orient="auto"
       inkscape:stockid="Arrow1Mend"><path
         transform="matrix(-0.4,0,0,-0.4,-4,0)"
         style="fill:#262626;fill-opacity:1;fill-rule:evenodd;stroke:#262626;stroke-width:1.00000003pt;stroke-opacity:1"
         d="M 0,0 5,-5 -12.5,0 5,5 Z"
         id="path1904"
         inkscape:connector-curvature="0" /></marker><marker
       inkscape:isstock="true"
       style="overflow:visible"
       id="marker1848"
       refX="0"
       refY="0"
       orient="auto"
       inkscape:stockid="Arrow1Mend"><path
         transform="matrix(-0.4,0,0,-0.4,-4,0)"
         style="fill:#262626;fill-opacity:1;fill-rule:evenodd;stroke:#262626;stroke-width:1.00000003pt;stroke-opacity:1"
         d="M 0,0 5,-5 -12.5,0 5,5 Z"
         id="path1846"
         inkscape:connector-curvature="0" /></marker><marker
       inkscape:isstock="true"
       style="overflow:visible"
       id="marker1796"
       refX="0"
       refY="0"
       orient="auto"
       inkscape:stockid="Arrow1Mend"><path
         transform="matrix(-0.4,0,0,-0.4,-4,0)"
         style="fill:#262626;fill-opacity:1;fill-rule:evenodd;stroke:#262626;stroke-width:1.00000003pt;stroke-opacity:1"
         d="M 0,0 5,-5 -12.5,0 5,5 Z"
         id="path1794"
         inkscape:connector-curvature="0" /></marker><marker
       inkscape:isstock="true"
       style="overflow:visible"
       id="marker1786"
       refX="0"
       refY="0"
       orient="auto"
       inkscape:stockid="Arrow1Mend"><path
         transform="matrix(-0.4,0,0,-0.4,-4,0)"
         style="fill:#262626;fill-opacity:1;fill-rule:evenodd;stroke:#262626;stroke-width:1.00000003pt;stroke-opacity:1"
         d="M 0,0 5,-5 -12.5,0 5,5 Z"
         id="path1784"
         inkscape:connector-curvature="0" /></marker><marker
       inkscape:stockid="Arrow1Mend"
       orient="auto"
       refY="0"
       refX="0"
       id="Arrow1Mend"
       style="overflow:visible"
       inkscape:isstock="true"
       inkscape:collect="always"><path
         id="path1331"
         d="M 0,0 5,-5 -12.5,0 5,5 Z"
         style="fill:#262626;fill-opacity:1;fill-rule:evenodd;stroke:#262626;stroke-width:1.00000003pt;stroke-opacity:1"
         transform="matrix(-0.4,0,0,-0.4,-4,0)"
         inkscape:connector-curvature="0" /></marker><marker
       inkscape:isstock="true"
       style="overflow:visible"
       id="marker1690"
       refX="0"
       refY="0"
       orient="auto"
       inkscape:stockid="Arrow1Lend"><path
         transform="matrix(-0.8,0,0,-0.8,-10,0)"
         style="fill:#262626;fill-opacity:1;fill-rule:evenodd;stroke:#262626;stroke-width:1.00000003pt;stroke-opacity:1"
         d="M 0,0 5,-5 -12.5,0 5,5 Z"
         id="path1688"
         inkscape:connector-curvature="0" /></marker><marker
       inkscape:isstock="true"
       style="overflow:visible"
       id="marker1656"
       refX="0"
       refY="0"
       orient="auto"
       inkscape:stockid="Arrow1Lend"><path
         transform="matrix(-0.8,0,0,-0.8,-10,0)"
         style="fill:#262626;fill-opacity:1;fill-rule:evenodd;stroke:#262626;stroke-width:1.00000003pt;stroke-opacity:1"
         d="M 0,0 5,-5 -12.5,0 5,5 Z"
         id="path1654"
         inkscape:connector-curvature="0" /></marker><marker
       inkscape:isstock="true"
       style="overflow:visible"
       id="marker1628"
       refX="0"
       refY="0"
       orient="auto"
       inkscape:stockid="Arrow1Lend"><path
         transform="matrix(-0.8,0,0,-0.8,-10,0)"
         style="fill:#262626;fill-opacity:1;fill-rule:evenodd;stroke:#262626;stroke-width:1.00000003pt;stroke-opacity:1"
         d="M 0,0 5,-5 -12.5,0 5,5 Z"
         id="path1626"
         inkscape:connector-curvature="0" /></marker><marker
       inkscape:isstock="true"
       style="overflow:visible"
       id="marker1606"
       refX="0"
       refY="0"
       orient="auto"
       inkscape:stockid="Arrow1Lend"><path
         transform="matrix(-0.8,0,0,-0.8,-10,0)"
         style="fill:#262626;fill-opacity:1;fill-rule:evenodd;stroke:#262626;stroke-width:1.00000003pt;stroke-opacity:1"
         d="M 0,0 5,-5 -12.5,0 5,5 Z"
         id="path1604"
         inkscape:connector-curvature="0" /></marker></defs><sodipodi:namedview
     pagecolor="#ffffff"
     bordercolor="#666666"
     borderopacity="1"
     objecttolerance="10"
     gridtolerance="10"
     guidetolerance="10"
     inkscape:pageopacity="0"
     inkscape:pageshadow="2"
     inkscape:window-width="2597"
     inkscape:window-height="1491"
     id="namedview4"
     showgrid="false"
     inkscape:zoom="0.83886262"
     inkscape:cx="-188.79404"
     inkscape:cy="644.67785"
     inkscape:window-x="67"
     inkscape:window-y="34"
     inkscape:window-maximized="0"
     inkscape:current-layer="g10"
     fit-margin-top="0"
     fit-margin-left="0"
     fit-margin-right="0"
     fit-margin-bottom="0" /><g
     id="g10"
     inkscape:groupmode="layer"
     inkscape:label="fig"
     transform="matrix(1.3333333,0,0,-1.3333333,-649.00858,828.72769)"><path
   inkscape:connector-curvature="0"
   id="path26"
   style="fill:none;stroke:#262626;stroke-width:0.5;stroke-linecap:butt;stroke-linejoin:miter;stroke-miterlimit:10;stroke-dasharray:16, 0;stroke-dashoffset:0;stroke-opacity:1"
   d="M 672.32094,291.11953 V 621.54578" /><path
   inkscape:connector-curvature="0"
   id="path28"
   style="fill:none;stroke:#262626;stroke-width:0.5;stroke-linecap:butt;stroke-linejoin:miter;stroke-miterlimit:10;stroke-dasharray:16, 0;stroke-dashoffset:0;stroke-opacity:1"
   d="M 795.16419,291.11953 V 621.54578" /><path
   inkscape:connector-curvature="0"
   id="path38"
   style="fill:none;stroke:#262626;stroke-width:0.5;stroke-linecap:butt;stroke-linejoin:miter;stroke-miterlimit:10;stroke-dasharray:none;stroke-opacity:1"
   d="m 549.4772,541.39113 v -4.957" /><path
   inkscape:connector-curvature="0"
   id="path42"
   style="fill:none;stroke:#262626;stroke-width:0.5;stroke-linecap:butt;stroke-linejoin:miter;stroke-miterlimit:10;stroke-dasharray:none;stroke-opacity:1"
   d="m 672.32094,541.39113 v -4.957" /><path
   inkscape:connector-curvature="0"
   id="path46"
   style="fill:none;stroke:#262626;stroke-width:0.5;stroke-linecap:butt;stroke-linejoin:miter;stroke-miterlimit:10;stroke-dasharray:none;stroke-opacity:1"
   d="m 795.16419,541.39113 v -4.957" /><path
   sodipodi:nodetypes="ccccccccccccccccccccccccccccccccccccccccccccccccccccccccccccccccccccccccccccccccccccccccccccccccccccccccccccccccccccccccccccccccccccccccccccccccc"
   inkscape:connector-curvature="0"
   id="path134"
   style="fill:none;stroke:#0072bd;stroke-width:2;stroke-linecap:butt;stroke-linejoin:miter;stroke-miterlimit:10;stroke-dasharray:none;stroke-opacity:1"
   d="m 495.4261,527.91789 2.45675,-0.96132 2.45725,-0.92645 2.45676,-0.88413 2.45676,-0.84426 2.45675,-0.80443 2.45725,-0.76208 2.45676,-0.72223 2.45676,-0.67493 2.45675,-0.63507 2.45725,-0.58775 2.45676,-0.54542 2.45675,-0.49809 2.45676,-0.45327 2.45676,-0.40595 2.45725,-0.35863 2.45675,-0.3113 2.45676,-0.26648 2.45676,-0.21668 2.45725,-0.16686 2.45675,-0.12203 2.45676,-0.0722 2.45675,-0.0249 2.45726,0.0249 2.45675,0.0722 2.45676,0.12203 2.45675,0.16686 2.45676,0.21668 2.45725,0.26648 2.45676,0.3113 2.45675,0.35863 2.45676,0.40595 2.45725,0.45327 2.45675,0.49809 2.45676,0.54542 2.45676,0.58775 2.45675,0.63507 2.45725,0.67493 2.45676,0.72223 2.45676,0.76208 2.45675,0.80443 2.45725,0.84426 2.45676,0.88413 2.45675,0.92645 2.45676,0.96132 2.45725,0.99868 2.45676,1.03604 2.45675,1.07091 2.45676,1.10577 2.45725,1.13814 2.45676,1.17053 2.45675,1.20289 2.45676,1.2303 2.45675,1.26018 2.45726,1.28509 2.45675,1.31248 2.45676,1.33738 2.45675,1.3598 2.45725,1.38221 2.45676,1.40214 2.45676,1.42206 2.45675,1.4395 2.45676,1.45692 2.45725,1.47187 2.45676,1.48433 2.45675,1.49677 2.45676,1.50674 2.45725,1.5167 2.45675,1.52417 2.45676,1.52915 2.45676,1.53413 2.45725,1.53911 2.45675,1.53912 2.45676,1.53911 2.45675,1.53662 2.45676,1.53414 2.45725,1.52915 2.45676,1.52417 2.45675,1.5167 2.45676,1.50674 2.45725,1.49677 2.45676,1.48432 2.45675,1.47187 2.45676,1.45693 2.45725,1.43949 2.45676,1.42206 2.45675,1.40215 2.45676,1.38221 2.45675,1.3598 2.45725,1.33738 2.45676,1.31248 2.45676,1.28758 2.45675,1.25768 2.45725,1.23279 2.45676,1.20041 2.45676,1.17052 2.45675,1.13815 2.45725,1.10577 2.45676,1.07091 2.45675,1.03603 2.45676,0.99868 2.45676,0.96382 2.45725,0.92397 2.45675,0.88411 2.45676,0.84427 2.45675,0.80443 2.45726,0.76457 2.45675,0.71975 2.45676,0.67741 2.45675,0.63258 2.45726,0.58775 2.45675,0.54541 2.45676,0.4981 2.45675,0.45326 2.45676,0.40595 2.45725,0.35863 2.45676,0.3138 2.45675,0.26399 2.45676,0.21667 2.45725,0.16936 2.45675,0.11954 2.45676,0.0722 2.45676,0.0249 2.45725,-0.0249 2.45675,-0.0722 2.45676,-0.11954 2.45676,-0.16936 2.45675,-0.21667 2.45725,-0.26399 2.45676,-0.3138 2.45675,-0.35863 2.45676,-0.40595 2.45725,-0.45326 2.45676,-0.4981 2.45675,-0.54541 2.45676,-0.58775 2.45725,-0.63258 2.45676,-0.67741 2.45675,-0.71975 2.45676,-0.76457 2.45725,-0.80443 2.45824,-0.84427 2.45676,-0.88411 2.45675,-0.92397 2.45676,-0.96382" /><path
   d="M 486.75645,516.67338 H 877.29799"
   style="fill:none;stroke:#262626;stroke-width:3;stroke-linecap:butt;stroke-linejoin:miter;stroke-miterlimit:10;stroke-dasharray:96.00000191, 0;stroke-dashoffset:0;stroke-opacity:1;marker-end:url(#marker1848)"
   id="path1019"
   inkscape:connector-curvature="0" /><text
   xml:space="preserve"
   style="font-style:normal;font-weight:normal;font-size:14.92953968px;line-height:1.25;font-family:sans-serif;letter-spacing:0px;word-spacing:0px;opacity:1;vector-effect:none;fill:#0072bd;fill-opacity:1;stroke:none;stroke-width:2;stroke-linecap:butt;stroke-linejoin:miter;stroke-miterlimit:10;stroke-dasharray:none;stroke-dashoffset:0;stroke-opacity:1"
   x="795.12494"
   y="-585.11853"
   id="text1081"
   transform="scale(0.99530266,-1.0047195)"><tspan
     sodipodi:role="line"
     id="tspan1079"
     x="795.12494"
     y="-585.11853"
     style="vector-effect:none;fill:#0072bd;fill-opacity:1;stroke:none;stroke-width:2;stroke-linecap:butt;stroke-linejoin:miter;stroke-miterlimit:10;stroke-dasharray:none;stroke-dashoffset:0;stroke-opacity:1">Position</tspan></text>

<path
   sodipodi:nodetypes="ccccccccccccccccccccccccccccccccccccccccccccccccccccccccccccccccccccccccccccccccccccccccccccccccccccccccccccccccccccccccccccccccccccccccccccccccc"
   inkscape:connector-curvature="0"
   id="path136"
   style="fill:none;stroke:#d95319;stroke-width:2;stroke-linecap:butt;stroke-linejoin:miter;stroke-miterlimit:10;stroke-dasharray:none;stroke-opacity:1"
   d="m 495.4261,411.58336 2.45675,1.19947 2.45725,1.22956 2.45676,1.25728 2.45676,1.28498 2.45675,1.31111 2.45725,1.33487 2.45676,1.35861 2.45676,1.38078 2.45675,1.40057 2.45725,1.42037 2.45676,1.43779 2.45675,1.45441 2.45676,1.46945 2.45676,1.48292 2.45725,1.49479 2.45675,1.50509 2.45676,1.51458 2.45676,1.52171 2.45725,1.52805 2.45675,1.53199 2.45676,1.53597 2.45675,1.53675 2.45726,1.53755 2.45675,1.53517 2.45676,1.5328 2.45675,1.52804 2.45676,1.52171 2.45725,1.51379 2.45676,1.50588 2.45675,1.49479 2.45676,1.48213 2.45725,1.46945 2.45675,1.45441 2.45676,1.43779 2.45676,1.42037 2.45675,1.40137 2.45725,1.37998 2.45676,1.35862 2.45676,1.33565 2.45675,1.31032 2.45725,1.28498 2.45676,1.25807 2.45675,1.22876 2.45676,1.20027 2.45725,1.1686 2.45676,1.13693 2.45675,1.10367 2.45676,1.07043 2.45725,1.034 2.45676,0.99838 2.45675,0.96116 2.45676,0.92316 2.45675,0.88437 2.45726,0.84398 2.45675,0.80282 2.45676,0.76165 2.45675,0.71968 2.45725,0.67614 2.45676,0.6326 2.45676,0.58825 2.45675,0.54313 2.45676,0.498 2.45725,0.45208 2.45676,0.40537 2.45675,0.35866 2.45676,0.31194 2.45725,0.26444 2.45675,0.21693 2.45676,0.16864 2.45676,0.12034 2.45725,0.072 2.45675,0.0245 2.45676,-0.0245 2.45675,-0.072 2.45676,-0.12034 2.45725,-0.16864 2.45676,-0.21693 2.45675,-0.26444 2.45676,-0.31194 2.45725,-0.35866 2.45676,-0.40537 2.45675,-0.45208 2.45676,-0.498 2.45725,-0.54313 2.45676,-0.58825 2.45675,-0.6326 2.45676,-0.67614 2.45675,-0.71968 2.45725,-0.76165 2.45676,-0.80282 2.45676,-0.84398 2.45675,-0.88437 2.45725,-0.92316 2.45676,-0.96116 2.45676,-0.99838 2.45675,-1.034 2.45725,-1.07043 2.45676,-1.10367 2.45675,-1.13693 2.45676,-1.1686 2.45676,-1.20027 2.45725,-1.22876 2.45675,-1.25807 2.45676,-1.28498 2.45675,-1.31032 2.45726,-1.33565 2.45675,-1.35862 2.45676,-1.37998 2.45675,-1.40137 2.45726,-1.42037 2.45675,-1.43779 2.45676,-1.45441 2.45675,-1.46945 2.45676,-1.48213 2.45725,-1.49479 2.45676,-1.50588 2.45675,-1.51379 2.45676,-1.52171 2.45725,-1.52804 2.45675,-1.5328 2.45676,-1.53517 2.45676,-1.53755 2.45725,-1.53675 2.45675,-1.53597 2.45676,-1.53199 2.45676,-1.52805 2.45675,-1.52171 2.45725,-1.51458 2.45676,-1.50509 2.45675,-1.49479 2.45676,-1.48292 2.45725,-1.46945 2.45676,-1.45441 2.45675,-1.43779 2.45676,-1.42037 2.45725,-1.40057 2.45676,-1.38078 2.45675,-1.35861 2.45676,-1.33487 2.45725,-1.31111 2.45824,-1.28498 2.45676,-1.25728 2.45675,-1.22956 2.45676,-1.19947" /><path
   d="M 486.75645,442.773 H 877.29799"
   style="fill:none;stroke:#262626;stroke-width:3;stroke-linecap:butt;stroke-linejoin:miter;stroke-miterlimit:10;stroke-dasharray:96.00000169, 0;stroke-dashoffset:0;stroke-opacity:1;marker-end:url(#marker1796)"
   id="path1013"
   inkscape:connector-curvature="0" /><text
   transform="scale(0.99530266,-1.0047195)"
   id="text1107"
   y="-447.90497"
   x="794.74982"
   style="font-style:normal;font-weight:normal;font-size:14.92953968px;line-height:1.25;font-family:sans-serif;letter-spacing:0px;word-spacing:0px;opacity:1;vector-effect:none;fill:#803d20;fill-opacity:1;stroke:none;stroke-width:2;stroke-linecap:butt;stroke-linejoin:miter;stroke-miterlimit:10;stroke-dasharray:none;stroke-dashoffset:0;stroke-opacity:1"
   xml:space="preserve"><tspan
     style="vector-effect:none;fill:#803d20;fill-opacity:1;stroke:none;stroke-width:2;stroke-linecap:butt;stroke-linejoin:miter;stroke-miterlimit:10;stroke-dasharray:none;stroke-dashoffset:0;stroke-opacity:1"
     y="-447.90497"
     x="794.74982"
     id="tspan1105"
     sodipodi:role="line">Velocity</tspan></text>

<path
   sodipodi:nodetypes="ccccccccccccccccccccccccccccccccccccccccccccccccccccccccccccccccccccccccccccccccccccccccccccccccccccccccccccccccccccccccccccccccccccccccccccccccc"
   inkscape:connector-curvature="0"
   id="path138"
   style="fill:none;stroke:#edb120;stroke-width:3.75;stroke-linecap:butt;stroke-linejoin:miter;stroke-miterlimit:10;stroke-dasharray:none;stroke-opacity:1"
   d="m 495.4261,382.39752 2.45675,0.96187 2.45725,0.92402 2.45676,0.88467 2.45676,0.84482 2.45675,0.80394 2.45725,0.76232 2.45676,0.7202 2.45676,0.67681 2.45675,0.63317 2.45725,0.58902 2.45676,0.54388 2.45675,0.49821 2.45676,0.45255 2.45676,0.40614 2.45725,0.35921 2.45675,0.31179 2.45676,0.26462 2.45676,0.21695 2.45725,0.16876 2.45675,0.12082 2.45676,0.0724 2.45675,0.0242 2.45726,-0.0242 2.45675,-0.0724 2.45676,-0.12082 2.45675,-0.16876 2.45676,-0.21695 2.45725,-0.26462 2.45676,-0.31179 2.45675,-0.35921 2.45676,-0.40614 2.45725,-0.45255 2.45675,-0.49821 2.45676,-0.54388 2.45676,-0.58902 2.45675,-0.63317 2.45725,-0.67681 2.45676,-0.7202 2.45676,-0.76232 2.45675,-0.80394 2.45725,-0.84482 2.45676,-0.88467 2.45675,-0.92402 2.45676,-0.96187 2.45725,-0.99944 2.45676,-1.03553 2.45675,-1.07083 2.45676,-1.1049 2.45725,-1.13819 2.45676,-1.16997 2.45675,-1.20101 2.45676,-1.23026 2.45675,-1.25902 2.45726,-1.28601 2.45675,-1.312 2.45676,-1.33647 2.45675,-1.35992 2.45725,-1.38188 2.45676,-1.4023 2.45676,-1.42173 2.45675,-1.43939 2.45676,-1.45553 2.45725,-1.47092 2.45676,-1.48403 2.45675,-1.49615 2.45676,-1.50674 2.45725,-1.51582 2.45675,-1.52339 2.45676,-1.52944 2.45676,-1.53399 2.45725,-1.53701 2.45675,-1.53852 2.45676,-1.53853 2.45675,-1.53701 2.45676,-1.53398 2.45725,-1.52945 2.45676,-1.52313 2.45675,-1.51582 2.45676,-1.50674 2.45725,-1.4964 2.45676,-1.48404 2.45675,-1.47066 2.45676,-1.45579 2.45725,-1.43938 2.45676,-1.42148 2.45675,-1.40256 2.45676,-1.38162 2.45675,-1.35992 2.45725,-1.33672 2.45676,-1.31175 2.45676,-1.28626 2.45675,-1.25877 2.45725,-1.23052 2.45676,-1.20075 2.45676,-1.17023 2.45675,-1.13794 2.45725,-1.10514 2.45676,-1.07084 2.45675,-1.03552 2.45676,-0.9992 2.45676,-0.9621 2.45725,-0.92377 2.45675,-0.88493 2.45676,-0.84482 2.45675,-0.80394 2.45726,-0.76233 2.45675,-0.71994 2.45676,-0.67707 2.45675,-0.63317 2.45726,-0.58877 2.45675,-0.54387 2.45676,-0.49846 2.45675,-0.45255 2.45676,-0.40589 2.45725,-0.35921 2.45676,-0.31202 2.45675,-0.26457 2.45676,-0.21679 2.45725,-0.16889 2.45675,-0.12073 2.45676,-0.0725 2.45676,-0.0242 2.45725,0.0242 2.45675,0.0725 2.45676,0.12073 2.45676,0.16889 2.45675,0.21679 2.45725,0.26457 2.45676,0.31202 2.45675,0.35921 2.45676,0.40589 2.45725,0.45255 2.45676,0.49846 2.45675,0.54387 2.45676,0.58877 2.45725,0.63317 2.45676,0.67707 2.45675,0.71994 2.45676,0.76233 2.45725,0.80394 2.45824,0.84482 2.45676,0.88493 2.45675,0.92377 2.45676,0.9621" /><path
   d="M 486.75645,344.65713 H 877.29799"
   style="fill:none;stroke:#262626;stroke-width:3.75000024;stroke-linecap:butt;stroke-linejoin:miter;stroke-miterlimit:10;stroke-dasharray:none;stroke-dashoffset:0;stroke-opacity:1;marker-end:url(#marker1786)"
   id="path1029"
   inkscape:connector-curvature="0" /><text
   xml:space="preserve"
   style="font-style:normal;font-weight:normal;font-size:14.92953968px;line-height:1.25;font-family:sans-serif;letter-spacing:0px;word-spacing:0px;opacity:1;vector-effect:none;fill:#896c23;fill-opacity:1;stroke:none;stroke-width:2;stroke-linecap:butt;stroke-linejoin:miter;stroke-miterlimit:10;stroke-dasharray:none;stroke-dashoffset:0;stroke-opacity:1"
   x="761.40051"
   y="-315.45169"
   id="text1113"
   transform="scale(0.99530266,-1.0047195)"><tspan
     sodipodi:role="line"
     id="tspan1111"
     x="761.40051"
     y="-315.45169"
     style="vector-effect:none;fill:#896c23;fill-opacity:1;stroke:none;stroke-width:2;stroke-linecap:butt;stroke-linejoin:miter;stroke-miterlimit:10;stroke-dasharray:none;stroke-dashoffset:0;stroke-opacity:1">Acceleration</tspan></text>

<path
   inkscape:connector-curvature="0"
   id="path62"
   style="fill:none;stroke:#262626;stroke-width:3;stroke-linecap:butt;stroke-linejoin:miter;stroke-miterlimit:10;stroke-dasharray:96.00000213, 0;stroke-dashoffset:0;stroke-opacity:1;marker-end:url(#Arrow1Mend)"
   d="M 486.75645,147.16292 H 877.29799" /><path
   id="path1011"
   style="fill:none;stroke:#7e2f8e;stroke-width:2;stroke-linecap:butt;stroke-linejoin:miter;stroke-miterlimit:10;stroke-dasharray:none;stroke-opacity:1"
   d="m 495.4261,158.10801 2.45675,-0.97246 2.45725,-0.92703 2.45676,-0.88162 2.45676,-0.83736 2.45675,-0.79078 2.45725,-0.74652 2.45676,-0.7011 2.45676,-0.65568 2.45675,-0.61026 2.45725,-0.566 2.45676,-0.51942 2.45675,-0.47517 2.45676,-0.42974 2.45676,-0.38433 2.45725,-0.3389 2.45675,-0.29465 2.45676,-0.24806 2.45676,-0.20381 2.45725,-0.15839 2.45675,-0.11297 2.45676,-0.0675 2.45675,-0.0233 2.45726,0.0233 2.45675,0.0675 2.45676,0.11297 2.45675,0.15839 2.45676,0.20381 2.45725,0.24806 2.45676,0.29465 2.45675,0.3389 2.45676,0.38433 2.45725,0.42974 2.45675,0.47517 2.45676,0.51942 2.45676,0.566 2.45675,0.61026 2.45725,0.65568 2.45676,0.7011 2.45676,0.74652 2.45675,0.79078 2.45725,0.83736 2.45676,0.88162 2.45675,0.92703 2.45676,0.97246 2.45725,1.01788 2.45676,1.06213 2.45675,1.10871 122.9749,70.27182 2.45676,1.1087 2.45675,1.06215 2.45725,1.0179 2.45676,0.97245 2.45676,0.927 2.45675,0.88165 2.45725,0.83735 2.45676,0.79081 2.45676,0.74649 2.45675,0.7011 2.45725,0.6557 2.45676,0.61025 2.45675,0.566 2.45676,0.5194 2.45676,0.4752 2.45725,0.4297 2.45675,0.38435 2.45676,0.3389 2.45675,0.29465 2.45726,0.24805 2.45675,0.2038 2.45676,0.1584 2.45675,0.113 2.45676,0.0675 2.45725,0.0235 2.45676,-0.0235 2.45675,-0.0675 2.45676,-0.113 2.45725,-0.1584 2.45676,-0.2038 2.45675,-0.24805 2.45676,-0.29465 2.45725,-0.3389 2.45675,-0.38435 2.45676,-0.4297 2.45676,-0.4752 2.45675,-0.5194 2.45725,-0.566 2.45676,-0.61025 2.45676,-0.6557 2.45675,-0.7011 2.45725,-0.74649 2.45676,-0.79081 2.45675,-0.83735 2.45676,-0.88165 2.45725,-0.927 2.45676,-0.97245"
   inkscape:connector-curvature="0"
   sodipodi:nodetypes="cccccccccccccccccccccccccccccccccccccccccccccccccccccccccccccccccccccccccccccccccccccccccccccccc" /><text
   transform="scale(0.99530266,-1.0047195)"
   id="text1125"
   y="-218.27643"
   x="796.38342"
   style="font-style:normal;font-weight:normal;font-size:14.92953968px;line-height:1.25;font-family:sans-serif;letter-spacing:0px;word-spacing:0px;opacity:1;vector-effect:none;fill:#522b5a;fill-opacity:1;stroke:none;stroke-width:2;stroke-linecap:butt;stroke-linejoin:miter;stroke-miterlimit:10;stroke-dasharray:none;stroke-dashoffset:0;stroke-opacity:1"
   xml:space="preserve"><tspan
     style="vector-effect:none;fill:#522b5a;fill-opacity:1;stroke:none;stroke-width:2;stroke-linecap:butt;stroke-linejoin:miter;stroke-miterlimit:10;stroke-dasharray:none;stroke-dashoffset:0;stroke-opacity:1"
     y="-218.27643"
     x="796.38342"
     id="tspan1123"
     sodipodi:role="line">Position</tspan></text>

<text
   transform="scale(0.99530266,-1.0047195)"
   id="text1129"
   y="-9.6450834"
   x="766.43433"
   style="font-style:normal;font-weight:normal;font-size:14.92953968px;line-height:1.25;font-family:sans-serif;letter-spacing:0px;word-spacing:0px;opacity:1;vector-effect:none;fill:#522b5a;fill-opacity:1;stroke:none;stroke-width:2;stroke-linecap:butt;stroke-linejoin:miter;stroke-miterlimit:10;stroke-dasharray:none;stroke-dashoffset:0;stroke-opacity:1"
   xml:space="preserve"><tspan
     style="vector-effect:none;fill:#522b5a;fill-opacity:1;stroke:none;stroke-width:2;stroke-linecap:butt;stroke-linejoin:miter;stroke-miterlimit:10;stroke-dasharray:none;stroke-dashoffset:0;stroke-opacity:1"
     y="-9.6450834"
     x="766.43433"
     id="tspan1127"
     sodipodi:role="line">Acceleration</tspan></text>

<path
   d="M 486.75645,47.91435 H 877.29799"
   style="fill:none;stroke:#262626;stroke-width:3;stroke-linecap:butt;stroke-linejoin:miter;stroke-miterlimit:10;stroke-dasharray:96.00000213, 0;stroke-dashoffset:0;stroke-opacity:1;marker-end:url(#marker1906)"
   id="path1069"
   inkscape:connector-curvature="0" /><path
   sodipodi:nodetypes="cccccc"
   inkscape:connector-curvature="0"
   d="m 493.75441,97.53511 116.87987,0.209995 -0.0483,-49.941545 122.81833,-0.06058 0.19265,-48.43654 116.97033,0.073395"
   style="fill:none;stroke:#7e2f8e;stroke-width:2;stroke-linecap:butt;stroke-linejoin:miter;stroke-miterlimit:10;stroke-dasharray:none;stroke-opacity:1"
   id="path1046" /><path
   d="M 549.4772,291.11953 V 621.54578"
   style="fill:none;stroke:#262626;stroke-width:0.5;stroke-linecap:butt;stroke-linejoin:miter;stroke-miterlimit:10;stroke-dasharray:16, 0;stroke-dashoffset:0;stroke-opacity:1"
   id="path1181"
   inkscape:connector-curvature="0" /><path
   d="M 672.32094,-3.691415 V 253.50131"
   style="fill:none;stroke:#262626;stroke-width:0.5;stroke-linecap:butt;stroke-linejoin:miter;stroke-miterlimit:10;stroke-dasharray:15.99999991, 0;stroke-dashoffset:0;stroke-opacity:1"
   id="path1183"
   inkscape:connector-curvature="0" /><path
   d="M 795.16419,-3.691415 V 253.50131"
   style="fill:none;stroke:#262626;stroke-width:0.5;stroke-linecap:butt;stroke-linejoin:miter;stroke-miterlimit:10;stroke-dasharray:15.99999991, 0;stroke-dashoffset:0;stroke-opacity:1"
   id="path1185"
   inkscape:connector-curvature="0" /><path
   inkscape:connector-curvature="0"
   id="path1187"
   style="fill:none;stroke:#262626;stroke-width:0.5;stroke-linecap:butt;stroke-linejoin:miter;stroke-miterlimit:10;stroke-dasharray:15.99999991, 0;stroke-dashoffset:0;stroke-opacity:1"
   d="M 549.4772,-3.691415 V 253.50131" /><g
   id="g2000"
   transform="matrix(0.49531369,0,0,0.5,344.2098,160.05665)"
   style="stroke-width:2.00943899"><text
   transform="scale(1,-1)"
   id="text1976"
   y="-234.88847"
   x="405.72137"
   style="font-style:normal;font-weight:normal;font-size:30px;line-height:1.25;font-family:sans-serif;letter-spacing:0px;word-spacing:0px;fill:#000000;fill-opacity:1;stroke:none;stroke-width:1.50707924"
   xml:space="preserve"><tspan
     style="stroke-width:1.50707924"
     y="-234.88847"
     x="405.72137"
     id="tspan1974"
     sodipodi:role="line">0</tspan></text>

<text
   xml:space="preserve"
   style="font-style:normal;font-weight:normal;font-size:30px;line-height:1.25;font-family:sans-serif;letter-spacing:0px;word-spacing:0px;fill:#000000;fill-opacity:1;stroke:none;stroke-width:1.50707924"
   x="639.00366"
   y="-234.88847"
   id="text1980"
   transform="scale(1,-1)"><tspan
     id="tspan1982"
     sodipodi:role="line"
     x="639.00366"
     y="-234.88847"
     style="stroke-width:1.50707924">0.5</tspan></text>

<text
   transform="scale(1,-1)"
   id="text1988"
   y="-234.46367"
   x="900.10284"
   style="font-style:normal;font-weight:normal;font-size:30px;line-height:1.25;font-family:sans-serif;letter-spacing:0px;word-spacing:0px;fill:#000000;fill-opacity:1;stroke:none;stroke-width:1.50707924"
   xml:space="preserve"><tspan
     id="tspan1990"
     style="stroke-width:1.50707924"
     y="-234.46367"
     x="900.10284"
     sodipodi:role="line">1</tspan></text>

</g><g
   transform="matrix(0.49531369,0,0,0.5,344.2098,-136.48309)"
   id="g2014"
   style="stroke-width:2.00943899"><text
   xml:space="preserve"
   style="font-style:normal;font-weight:normal;font-size:30px;line-height:1.25;font-family:sans-serif;letter-spacing:0px;word-spacing:0px;fill:#000000;fill-opacity:1;stroke:none;stroke-width:1.50707924"
   x="405.72137"
   y="-234.88847"
   id="text2004"
   transform="scale(1,-1)"><tspan
     sodipodi:role="line"
     id="tspan2002"
     x="405.72137"
     y="-234.88847"
     style="stroke-width:1.50707924">0</tspan></text>

<text
   transform="scale(1,-1)"
   id="text2008"
   y="-234.88847"
   x="639.00366"
   style="font-style:normal;font-weight:normal;font-size:30px;line-height:1.25;font-family:sans-serif;letter-spacing:0px;word-spacing:0px;fill:#000000;fill-opacity:1;stroke:none;stroke-width:1.50707924"
   xml:space="preserve"><tspan
     style="stroke-width:1.50707924"
     y="-234.88847"
     x="639.00366"
     sodipodi:role="line"
     id="tspan2006">0.5</tspan></text>

<text
   xml:space="preserve"
   style="font-style:normal;font-weight:normal;font-size:30px;line-height:1.25;font-family:sans-serif;letter-spacing:0px;word-spacing:0px;fill:#000000;fill-opacity:1;stroke:none;stroke-width:1.50707924"
   x="900.10284"
   y="-234.46367"
   id="text2012"
   transform="scale(1,-1)"><tspan
     sodipodi:role="line"
     x="900.10284"
     y="-234.46367"
     style="stroke-width:1.50707924"
     id="tspan2010">1</tspan></text>

</g></g></svg>