<?xml version="1.0" encoding="UTF-8" standalone="no"?>
<!-- Created with Inkscape (http://www.inkscape.org/) -->

<svg
   xmlns:dc="http://purl.org/dc/elements/1.1/"
   xmlns:cc="http://creativecommons.org/ns#"
   xmlns:rdf="http://www.w3.org/1999/02/22-rdf-syntax-ns#"
   xmlns:svg="http://www.w3.org/2000/svg"
   xmlns="http://www.w3.org/2000/svg"
   xmlns:sodipodi="http://sodipodi.sourceforge.net/DTD/sodipodi-0.dtd"
   xmlns:inkscape="http://www.inkscape.org/namespaces/inkscape"
   version="1.1"
   id="svg2"
   xml:space="preserve"
   width="265.28772"
   height="427.198"
   viewBox="0 0 265.28773 427.198"
   sodipodi:docname="fig.svg"
   inkscape:version="0.92.3 (2405546, 2018-03-11)"><metadata
     id="metadata8"><rdf:RDF><cc:Work
         rdf:about=""><dc:format>image/svg+xml</dc:format><dc:type
           rdf:resource="http://purl.org/dc/dcmitype/StillImage" /><dc:title></dc:title></cc:Work></rdf:RDF></metadata><defs
     id="defs6"><marker
       inkscape:isstock="true"
       style="overflow:visible"
       id="marker1906"
       refX="0"
       refY="0"
       orient="auto"
       inkscape:stockid="Arrow1Mend"><path
         transform="matrix(-0.4,0,0,-0.4,-4,0)"
         style="fill:#262626;fill-opacity:1;fill-rule:evenodd;stroke:#262626;stroke-width:1.00000003pt;stroke-opacity:1"
         d="M 0,0 5,-5 -12.5,0 5,5 Z"
         id="path1904"
         inkscape:connector-curvature="0" /></marker><marker
       inkscape:isstock="true"
       style="overflow:visible"
       id="marker1848"
       refX="0"
       refY="0"
       orient="auto"
       inkscape:stockid="Arrow1Mend"><path
         transform="matrix(-0.4,0,0,-0.4,-4,0)"
         style="fill:#262626;fill-opacity:1;fill-rule:evenodd;stroke:#262626;stroke-width:1.00000003pt;stroke-opacity:1"
         d="M 0,0 5,-5 -12.5,0 5,5 Z"
         id="path1846"
         inkscape:connector-curvature="0" /></marker><marker
       inkscape:isstock="true"
       style="overflow:visible"
       id="marker1796"
       refX="0"
       refY="0"
       orient="auto"
       inkscape:stockid="Arrow1Mend"><path
         transform="matrix(-0.4,0,0,-0.4,-4,0)"
         style="fill:#262626;fill-opacity:1;fill-rule:evenodd;stroke:#262626;stroke-width:1.00000003pt;stroke-opacity:1"
         d="M 0,0 5,-5 -12.5,0 5,5 Z"
         id="path1794"
         inkscape:connector-curvature="0" /></marker><marker
       inkscape:isstock="true"
       style="overflow:visible"
       id="marker1786"
       refX="0"
       refY="0"
       orient="auto"
       inkscape:stockid="Arrow1Mend"><path
         transform="matrix(-0.4,0,0,-0.4,-4,0)"
         style="fill:#262626;fill-opacity:1;fill-rule:evenodd;stroke:#262626;stroke-width:1.00000003pt;stroke-opacity:1"
         d="M 0,0 5,-5 -12.5,0 5,5 Z"
         id="path1784"
         inkscape:connector-curvature="0" /></marker><marker
       inkscape:stockid="Arrow1Mend"
       orient="auto"
       refY="0"
       refX="0"
       id="Arrow1Mend"
       style="overflow:visible"
       inkscape:isstock="true"
       inkscape:collect="always"><path
         id="path1331"
         d="M 0,0 5,-5 -12.5,0 5,5 Z"
         style="fill:#262626;fill-opacity:1;fill-rule:evenodd;stroke:#262626;stroke-width:1.00000003pt;stroke-opacity:1"
         transform="matrix(-0.4,0,0,-0.4,-4,0)"
         inkscape:connector-curvature="0" /></marker><marker
       inkscape:isstock="true"
       style="overflow:visible"
       id="marker1690"
       refX="0"
       refY="0"
       orient="auto"
       inkscape:stockid="Arrow1Lend"><path
         transform="matrix(-0.8,0,0,-0.8,-10,0)"
         style="fill:#262626;fill-opacity:1;fill-rule:evenodd;stroke:#262626;stroke-width:1.00000003pt;stroke-opacity:1"
         d="M 0,0 5,-5 -12.5,0 5,5 Z"
         id="path1688"
         inkscape:connector-curvature="0" /></marker><marker
       inkscape:isstock="true"
       style="overflow:visible"
       id="marker1656"
       refX="0"
       refY="0"
       orient="auto"
       inkscape:stockid="Arrow1Lend"><path
         transform="matrix(-0.8,0,0,-0.8,-10,0)"
         style="fill:#262626;fill-opacity:1;fill-rule:evenodd;stroke:#262626;stroke-width:1.00000003pt;stroke-opacity:1"
         d="M 0,0 5,-5 -12.5,0 5,5 Z"
         id="path1654"
         inkscape:connector-curvature="0" /></marker><marker
       inkscape:isstock="true"
       style="overflow:visible"
       id="marker1628"
       refX="0"
       refY="0"
       orient="auto"
       inkscape:stockid="Arrow1Lend"><path
         transform="matrix(-0.8,0,0,-0.8,-10,0)"
         style="fill:#262626;fill-opacity:1;fill-rule:evenodd;stroke:#262626;stroke-width:1.00000003pt;stroke-opacity:1"
         d="M 0,0 5,-5 -12.5,0 5,5 Z"
         id="path1626"
         inkscape:connector-curvature="0" /></marker><marker
       inkscape:isstock="true"
       style="overflow:visible"
       id="marker1606"
       refX="0"
       refY="0"
       orient="auto"
       inkscape:stockid="Arrow1Lend"><path
         transform="matrix(-0.8,0,0,-0.8,-10,0)"
         style="fill:#262626;fill-opacity:1;fill-rule:evenodd;stroke:#262626;stroke-width:1.00000003pt;stroke-opacity:1"
         d="M 0,0 5,-5 -12.5,0 5,5 Z"
         id="path1604"
         inkscape:connector-curvature="0" /></marker></defs><sodipodi:namedview
     pagecolor="#ffffff"
     bordercolor="#666666"
     borderopacity="1"
     objecttolerance="10"
     gridtolerance="10"
     guidetolerance="10"
     inkscape:pageopacity="0"
     inkscape:pageshadow="2"
     inkscape:window-width="2597"
     inkscape:window-height="1491"
     id="namedview4"
     showgrid="false"
     inkscape:zoom="0.83886262"
     inkscape:cx="-321.4379"
     inkscape:cy="431.07888"
     inkscape:window-x="67"
     inkscape:window-y="34"
     inkscape:window-maximized="0"
     inkscape:current-layer="g10"
     fit-margin-top="0"
     fit-margin-left="0"
     fit-margin-right="0"
     fit-margin-bottom="0" /><g
     id="g10"
     inkscape:groupmode="layer"
     inkscape:label="fig"
     transform="matrix(1.3333333,0,0,-1.3333333,-781.65245,615.12868)"><path
   inkscape:connector-curvature="0"
   id="path26"
   style="fill:none;stroke:#262626;stroke-width:0.50000006;stroke-linecap:butt;stroke-linejoin:miter;stroke-miterlimit:10;stroke-dasharray:16.00000004, 0;stroke-dashoffset:0;stroke-opacity:1"
   d="M 677.26592,296.13339 V 461.34652" /><path
   inkscape:connector-curvature="0"
   id="path28"
   style="fill:none;stroke:#262626;stroke-width:0.50000006;stroke-linecap:butt;stroke-linejoin:miter;stroke-miterlimit:10;stroke-dasharray:16.00000004, 0;stroke-dashoffset:0;stroke-opacity:1"
   d="M 737.52529,296.13339 V 461.34652" /><path
   inkscape:connector-curvature="0"
   id="path38"
   style="fill:none;stroke:#262626;stroke-width:0.50000006;stroke-linecap:butt;stroke-linejoin:miter;stroke-miterlimit:10;stroke-dasharray:none;stroke-opacity:1"
   d="M 617.00631,421.26919 V 418.7907" /><path
   inkscape:connector-curvature="0"
   id="path42"
   style="fill:none;stroke:#262626;stroke-width:0.50000006;stroke-linecap:butt;stroke-linejoin:miter;stroke-miterlimit:10;stroke-dasharray:none;stroke-opacity:1"
   d="M 677.26592,421.26919 V 418.7907" /><path
   inkscape:connector-curvature="0"
   id="path46"
   style="fill:none;stroke:#262626;stroke-width:0.50000006;stroke-linecap:butt;stroke-linejoin:miter;stroke-miterlimit:10;stroke-dasharray:none;stroke-opacity:1"
   d="M 737.52529,421.26919 V 418.7907" /><path
   sodipodi:nodetypes="ccccccccccccccccccccccccccccccccccccccccccccccccccccccccccccccccccccccccccccccccccccccccccccccccccccccccccccccccccccccccccccccccccccccccccccccccc"
   inkscape:connector-curvature="0"
   id="path134"
   style="fill:none;stroke:#0072bd;stroke-width:2.00000024;stroke-linecap:butt;stroke-linejoin:miter;stroke-miterlimit:10;stroke-dasharray:none;stroke-opacity:1"
   d="m 590.49215,414.53258 1.20513,-0.48067 1.20538,-0.46322 1.20513,-0.44207 1.20514,-0.42212 1.20513,-0.40222 1.20538,-0.38104 1.20513,-0.36111 1.20514,-0.33747 1.20513,-0.31754 1.20538,-0.29387 1.20513,-0.27271 1.20513,-0.24905 1.20514,-0.22663 1.20513,-0.20297 1.20538,-0.17932 1.20513,-0.15565 1.20514,-0.13324 1.20513,-0.10834 1.20538,-0.0834 1.20513,-0.061 1.20514,-0.0361 1.20513,-0.0125 1.20538,0.0125 1.20513,0.0361 1.20513,0.061 1.20514,0.0834 1.20513,0.10834 1.20538,0.13324 1.20513,0.15565 1.20513,0.17932 1.20514,0.20297 1.20538,0.22663 1.20513,0.24905 1.20513,0.27271 1.20514,0.29387 1.20513,0.31754 1.20538,0.33747 1.20513,0.36111 1.20514,0.38104 1.20513,0.40222 1.20538,0.42212 1.20513,0.44207 1.20513,0.46322 1.20514,0.48067 1.20537,0.49934 1.20514,0.51801 1.20513,0.53546 1.20514,0.55289 1.20537,0.56907 1.20514,0.58526 1.20513,0.60145 1.20514,0.61515 1.20513,0.63009 1.20538,0.64254 1.20513,0.65624 1.20514,0.66869 1.20513,0.6799 1.20537,0.69111 1.20514,0.70107 1.20513,0.71103 1.20514,0.71975 1.20513,0.72846 1.20538,0.73593 1.20513,0.74217 1.20513,0.74838 1.20514,0.75337 1.20538,0.75835 1.20513,0.76209 1.20513,0.76457 1.20514,0.76707 1.20538,0.76955 1.20513,0.76956 1.20513,0.76956 1.20513,0.76831 1.20514,0.76707 1.20538,0.76457 1.20513,0.76209 1.20513,0.75835 1.20514,0.75337 1.20537,0.74838 1.20514,0.74216 1.20513,0.73594 1.20514,0.72846 1.20537,0.71975 1.20514,0.71103 1.20513,0.70107 1.20514,0.69111 1.20513,0.6799 1.20537,0.66869 1.20514,0.65624 1.20514,0.64379 1.20513,0.62884 1.20537,0.61639 1.20514,0.60021 1.20513,0.58526 1.20514,0.56907 1.20537,0.55289 1.20514,0.53545 1.20513,0.51802 1.20513,0.49934 1.20514,0.48191 1.20538,0.46198 1.20513,0.44206 1.20513,0.42213 1.20513,0.40222 1.20539,0.38228 1.20513,0.35988 1.20513,0.3387 1.20513,0.31629 1.20538,0.29388 1.20514,0.2727 1.20513,0.24905 1.20513,0.22663 1.20514,0.20298 1.20537,0.17931 1.20514,0.1569 1.20513,0.132 1.20514,0.10833 1.20537,0.0847 1.20513,0.0598 1.20514,0.0361 1.20514,0.0125 1.20537,-0.0125 1.20513,-0.0361 1.20514,-0.0598 1.20513,-0.0847 1.20514,-0.10833 1.20537,-0.132 1.20514,-0.1569 1.20513,-0.17931 1.20513,-0.20298 1.20538,-0.22663 1.20514,-0.24905 1.20513,-0.2727 1.20513,-0.29388 1.20538,-0.31629 1.20514,-0.3387 1.20513,-0.35988 1.20513,-0.38228 1.20538,-0.40222 1.20586,-0.42213 1.20514,-0.44206 1.20513,-0.46198 1.20513,-0.48191" /><path
   d="M 586.23935,408.91032 H 777.81509"
   style="fill:none;stroke:#262626;stroke-width:3;stroke-linecap:butt;stroke-linejoin:miter;stroke-miterlimit:10;stroke-dasharray:96.00000216, 0;stroke-dashoffset:0;stroke-opacity:1;marker-end:url(#marker1848)"
   id="path1019"
   inkscape:connector-curvature="0" /><text
   xml:space="preserve"
   style="font-style:normal;font-weight:normal;font-size:7.39380598px;line-height:1.25;font-family:sans-serif;letter-spacing:0px;word-spacing:0px;opacity:1;vector-effect:none;fill:#0072bd;fill-opacity:1;stroke:none;stroke-width:2;stroke-linecap:butt;stroke-linejoin:miter;stroke-miterlimit:10;stroke-dasharray:none;stroke-dashoffset:0;stroke-opacity:1"
   x="746.23999"
   y="-438.2197"
   id="text1081"
   transform="scale(0.98584084,-1.0143625)"><tspan
     sodipodi:role="line"
     id="tspan1079"
     x="746.23999"
     y="-438.2197"
     style="vector-effect:none;fill:#0072bd;fill-opacity:1;stroke:none;stroke-width:2;stroke-linecap:butt;stroke-linejoin:miter;stroke-miterlimit:10;stroke-dasharray:none;stroke-dashoffset:0;stroke-opacity:1">Position</tspan></text>

<path
   sodipodi:nodetypes="ccccccccccccccccccccccccccccccccccccccccccccccccccccccccccccccccccccccccccccccccccccccccccccccccccccccccccccccccccccccccccccccccccccccccccccccccc"
   inkscape:connector-curvature="0"
   id="path136"
   style="fill:none;stroke:#d95319;stroke-width:2.00000024;stroke-linecap:butt;stroke-linejoin:miter;stroke-miterlimit:10;stroke-dasharray:none;stroke-opacity:1"
   d="m 590.49215,356.36531 1.20513,0.59974 1.20538,0.61478 1.20513,0.62864 1.20514,0.64248 1.20513,0.65556 1.20538,0.66743 1.20513,0.67931 1.20514,0.69039 1.20513,0.70029 1.20538,0.71018 1.20513,0.7189 1.20513,0.7272 1.20514,0.73473 1.20513,0.74145 1.20538,0.7474 1.20513,0.75255 1.20514,0.75729 1.20513,0.76085 1.20538,0.76403 1.20513,0.76599 1.20514,0.76799 1.20513,0.76837 1.20538,0.76878 1.20513,0.76758 1.20513,0.7664 1.20514,0.76402 1.20513,0.76085 1.20538,0.7569 1.20513,0.75294 1.20513,0.7474 1.20514,0.74106 1.20538,0.73473 1.20513,0.7272 1.20513,0.7189 1.20514,0.71018 1.20513,0.70068 1.20538,0.69 1.20513,0.67931 1.20514,0.66782 1.20513,0.65516 1.20538,0.64249 1.20513,0.62903 1.20513,0.61439 1.20514,0.60013 1.20537,0.5843 1.20514,0.56846 1.20513,0.55184 1.20514,0.53521 1.20537,0.517 1.20514,0.49919 1.20513,0.48059 1.20514,0.46157 1.20513,0.44219 1.20538,0.42199 1.20513,0.40141 1.20514,0.38082 1.20513,0.35984 1.20537,0.33807 1.20514,0.3163 1.20513,0.29413 1.20514,0.27156 1.20513,0.249 1.20538,0.22604 1.20513,0.20269 1.20513,0.17933 1.20514,0.15597 1.20538,0.13222 1.20513,0.10846 1.20513,0.0843 1.20514,0.0602 1.20538,0.036 1.20513,0.0122 1.20513,-0.0122 1.20513,-0.036 1.20514,-0.0602 1.20538,-0.0843 1.20513,-0.10846 1.20513,-0.13222 1.20514,-0.15597 1.20537,-0.17933 1.20514,-0.20269 1.20513,-0.22604 1.20514,-0.249 1.20537,-0.27156 1.20514,-0.29413 1.20513,-0.3163 1.20514,-0.33807 1.20513,-0.35984 1.20537,-0.38082 1.20514,-0.40141 1.20514,-0.42199 1.20513,-0.44219 1.20537,-0.46157 1.20514,-0.48059 1.20513,-0.49919 1.20514,-0.517 1.20537,-0.53521 1.20514,-0.55184 1.20513,-0.56846 1.20513,-0.5843 1.20514,-0.60013 1.20538,-0.61439 1.20513,-0.62903 1.20513,-0.64249 1.20513,-0.65516 1.20539,-0.66782 1.20513,-0.67931 1.20513,-0.69 1.20513,-0.70068 1.20538,-0.71018 1.20514,-0.7189 1.20513,-0.7272 1.20513,-0.73473 1.20514,-0.74106 1.20537,-0.7474 1.20514,-0.75294 1.20513,-0.7569 1.20514,-0.76085 1.20537,-0.76402 1.20513,-0.7664 1.20514,-0.76758 1.20514,-0.76878 1.20537,-0.76837 1.20513,-0.76799 1.20514,-0.76599 1.20513,-0.76403 1.20514,-0.76085 1.20537,-0.75729 1.20514,-0.75255 1.20513,-0.7474 1.20513,-0.74145 1.20538,-0.73473 1.20514,-0.7272 1.20513,-0.7189 1.20513,-0.71018 1.20538,-0.70029 1.20514,-0.69039 1.20513,-0.67931 1.20513,-0.66743 1.20538,-0.65556 1.20586,-0.64248 1.20514,-0.62864 1.20513,-0.61478 1.20513,-0.59974" /><path
   d="M 586.23935,371.96013 H 777.81509"
   style="fill:none;stroke:#262626;stroke-width:3;stroke-linecap:butt;stroke-linejoin:miter;stroke-miterlimit:10;stroke-dasharray:96.00000194, 0;stroke-dashoffset:0;stroke-opacity:1;marker-end:url(#marker1796)"
   id="path1013"
   inkscape:connector-curvature="0" /><text
   transform="scale(0.98584084,-1.0143625)"
   id="text1107"
   y="-370.26511"
   x="746.05426"
   style="font-style:normal;font-weight:normal;font-size:7.39380598px;line-height:1.25;font-family:sans-serif;letter-spacing:0px;word-spacing:0px;opacity:1;vector-effect:none;fill:#803d20;fill-opacity:1;stroke:none;stroke-width:2;stroke-linecap:butt;stroke-linejoin:miter;stroke-miterlimit:10;stroke-dasharray:none;stroke-dashoffset:0;stroke-opacity:1"
   xml:space="preserve"><tspan
     style="vector-effect:none;fill:#803d20;fill-opacity:1;stroke:none;stroke-width:2;stroke-linecap:butt;stroke-linejoin:miter;stroke-miterlimit:10;stroke-dasharray:none;stroke-dashoffset:0;stroke-opacity:1"
     y="-370.26511"
     x="746.05426"
     id="tspan1105"
     sodipodi:role="line">Velocity</tspan></text>

<path
   sodipodi:nodetypes="ccccccccccccccccccccccccccccccccccccccccccccccccccccccccccccccccccccccccccccccccccccccccccccccccccccccccccccccccccccccccccccccccccccccccccccccccc"
   inkscape:connector-curvature="0"
   id="path138"
   style="fill:none;stroke:#edb120;stroke-width:3.75;stroke-linecap:butt;stroke-linejoin:miter;stroke-miterlimit:10;stroke-dasharray:none;stroke-opacity:1"
   d="m 590.49215,341.77239 1.20513,0.48094 1.20538,0.462 1.20513,0.44234 1.20514,0.42241 1.20513,0.40197 1.20538,0.38116 1.20513,0.3601 1.20514,0.3384 1.20513,0.31659 1.20538,0.29451 1.20513,0.27194 1.20513,0.2491 1.20514,0.22628 1.20513,0.20307 1.20538,0.1796 1.20513,0.1559 1.20514,0.13231 1.20513,0.10847 1.20538,0.0844 1.20513,0.0604 1.20514,0.0362 1.20513,0.0121 1.20538,-0.0121 1.20513,-0.0362 1.20513,-0.0604 1.20514,-0.0844 1.20513,-0.10847 1.20538,-0.13231 1.20513,-0.1559 1.20513,-0.1796 1.20514,-0.20307 1.20538,-0.22628 1.20513,-0.2491 1.20513,-0.27194 1.20514,-0.29451 1.20513,-0.31659 1.20538,-0.3384 1.20513,-0.3601 1.20514,-0.38116 1.20513,-0.40197 1.20538,-0.42241 1.20513,-0.44234 1.20513,-0.462 1.20514,-0.48094 1.20537,-0.49972 1.20514,-0.51777 1.20513,-0.53541 1.20514,-0.55245 1.20537,-0.5691 1.20514,-0.58498 1.20513,-0.6005 1.20514,-0.61514 1.20513,-0.6295 1.20538,-0.64301 1.20513,-0.656 1.20514,-0.66823 1.20513,-0.67996 1.20537,-0.69095 1.20514,-0.70115 1.20513,-0.71086 1.20514,-0.7197 1.20513,-0.72776 1.20538,-0.73546 1.20513,-0.74202 1.20513,-0.74807 1.20514,-0.75337 1.20538,-0.75791 1.20513,-0.7617 1.20513,-0.76472 1.20514,-0.76699 1.20538,-0.76851 1.20513,-0.76926 1.20513,-0.76926 1.20513,-0.76851 1.20514,-0.76699 1.20538,-0.76472 1.20513,-0.76157 1.20513,-0.75791 1.20514,-0.75337 1.20537,-0.7482 1.20514,-0.74202 1.20513,-0.73533 1.20514,-0.72789 1.20537,-0.71969 1.20514,-0.71074 1.20513,-0.70128 1.20514,-0.69081 1.20513,-0.67996 1.20537,-0.66836 1.20514,-0.65588 1.20514,-0.64313 1.20513,-0.62938 1.20537,-0.61526 1.20514,-0.60038 1.20513,-0.58511 1.20514,-0.56897 1.20537,-0.55257 1.20514,-0.53542 1.20513,-0.51776 1.20513,-0.4996 1.20514,-0.48105 1.20538,-0.46189 1.20513,-0.44246 1.20513,-0.42241 1.20513,-0.40197 1.20539,-0.38117 1.20513,-0.35997 1.20513,-0.33853 1.20513,-0.31659 1.20538,-0.29438 1.20514,-0.27194 1.20513,-0.24923 1.20513,-0.22627 1.20514,-0.20295 1.20537,-0.1796 1.20514,-0.15601 1.20513,-0.13229 1.20514,-0.10839 1.20537,-0.0845 1.20513,-0.0604 1.20514,-0.0362 1.20514,-0.0121 1.20537,0.0121 1.20513,0.0362 1.20514,0.0604 1.20513,0.0845 1.20514,0.10839 1.20537,0.13229 1.20514,0.15601 1.20513,0.1796 1.20513,0.20295 1.20538,0.22627 1.20514,0.24923 1.20513,0.27194 1.20513,0.29438 1.20538,0.31659 1.20514,0.33853 1.20513,0.35997 1.20513,0.38117 1.20538,0.40197 1.20586,0.42241 1.20514,0.44246 1.20513,0.46189 1.20513,0.48105" /><path
   d="M 586.23935,322.90219 H 777.81509"
   style="fill:none;stroke:#262626;stroke-width:3.75000024;stroke-linecap:butt;stroke-linejoin:miter;stroke-miterlimit:10;stroke-dasharray:none;stroke-dashoffset:0;stroke-opacity:1;marker-end:url(#marker1786)"
   id="path1029"
   inkscape:connector-curvature="0" /><text
   xml:space="preserve"
   style="font-style:normal;font-weight:normal;font-size:7.39380598px;line-height:1.25;font-family:sans-serif;letter-spacing:0px;word-spacing:0px;opacity:1;vector-effect:none;fill:#896c23;fill-opacity:1;stroke:none;stroke-width:2;stroke-linecap:butt;stroke-linejoin:miter;stroke-miterlimit:10;stroke-dasharray:none;stroke-dashoffset:0;stroke-opacity:1"
   x="729.53809"
   y="-304.66806"
   id="text1113"
   transform="scale(0.98584084,-1.0143625)"><tspan
     sodipodi:role="line"
     id="tspan1111"
     x="729.53809"
     y="-304.66806"
     style="vector-effect:none;fill:#896c23;fill-opacity:1;stroke:none;stroke-width:2;stroke-linecap:butt;stroke-linejoin:miter;stroke-miterlimit:10;stroke-dasharray:none;stroke-dashoffset:0;stroke-opacity:1">Acceleration</tspan></text>

<path
   inkscape:connector-curvature="0"
   id="path62"
   style="fill:none;stroke:#262626;stroke-width:3;stroke-linecap:butt;stroke-linejoin:miter;stroke-miterlimit:10;stroke-dasharray:96.00000238, 0;stroke-dashoffset:0;stroke-opacity:1;marker-end:url(#Arrow1Mend)"
   d="M 586.23935,224.15509 H 777.81509" /><path
   id="path1011"
   style="fill:none;stroke:#7e2f8e;stroke-width:2.00000024;stroke-linecap:butt;stroke-linejoin:miter;stroke-miterlimit:10;stroke-dasharray:none;stroke-opacity:1"
   d="m 590.49215,229.62763 1.20513,-0.48622 1.20538,-0.46352 1.20513,-0.44081 1.20514,-0.41868 1.20513,-0.39539 1.20538,-0.37326 1.20513,-0.35055 1.20514,-0.32784 1.20513,-0.30513 1.20538,-0.283 1.20513,-0.25971 1.20513,-0.23759 1.20514,-0.21487 1.20513,-0.19216 1.20538,-0.16945 1.20513,-0.14733 1.20514,-0.12403 1.20513,-0.1019 1.20538,-0.0792 1.20513,-0.0565 1.20514,-0.0337 1.20513,-0.0117 1.20538,0.0117 1.20513,0.0337 1.20513,0.0565 1.20514,0.0792 1.20513,0.1019 1.20538,0.12403 1.20513,0.14733 1.20513,0.16945 1.20514,0.19216 1.20538,0.21487 1.20513,0.23759 1.20513,0.25971 1.20514,0.283 1.20513,0.30513 1.20538,0.32784 1.20513,0.35055 1.20514,0.37326 1.20513,0.39539 1.20538,0.41868 1.20513,0.44081 1.20513,0.46352 1.20514,0.48622 1.20537,0.50894 1.20514,0.53107 1.20513,0.55435 60.32395,35.13592 1.20514,0.55435 1.20513,0.53107 1.20537,0.50895 1.20514,0.48623 1.20514,0.4635 1.20513,0.44082 1.20537,0.41867 1.20514,0.39541 1.20513,0.37325 1.20514,0.35055 1.20537,0.32784 1.20514,0.30513 1.20513,0.283 1.20513,0.2597 1.20514,0.2376 1.20538,0.21485 1.20513,0.19217 1.20513,0.16945 1.20513,0.14733 1.20539,0.12402 1.20513,0.1019 1.20513,0.0792 1.20513,0.0565 1.20514,0.0337 1.20538,0.0118 1.20513,-0.0118 1.20513,-0.0337 1.20514,-0.0565 1.20537,-0.0792 1.20514,-0.1019 1.20513,-0.12402 1.20514,-0.14733 1.20537,-0.16945 1.20513,-0.19217 1.20514,-0.21485 1.20514,-0.2376 1.20513,-0.2597 1.20537,-0.283 1.20514,-0.30513 1.20514,-0.32784 1.20513,-0.35055 1.20537,-0.37325 1.20514,-0.39541 1.20513,-0.41867 1.20514,-0.44082 1.20537,-0.4635 1.20514,-0.48623"
   inkscape:connector-curvature="0"
   sodipodi:nodetypes="cccccccccccccccccccccccccccccccccccccccccccccccccccccccccccccccccccccccccccccccccccccccccccccccc" /><text
   transform="scale(0.98584084,-1.0143625)"
   id="text1125"
   y="-256.54233"
   x="746.86328"
   style="font-style:normal;font-weight:normal;font-size:7.39380598px;line-height:1.25;font-family:sans-serif;letter-spacing:0px;word-spacing:0px;opacity:1;vector-effect:none;fill:#522b5a;fill-opacity:1;stroke:none;stroke-width:2;stroke-linecap:butt;stroke-linejoin:miter;stroke-miterlimit:10;stroke-dasharray:none;stroke-dashoffset:0;stroke-opacity:1"
   xml:space="preserve"><tspan
     style="vector-effect:none;fill:#522b5a;fill-opacity:1;stroke:none;stroke-width:2;stroke-linecap:butt;stroke-linejoin:miter;stroke-miterlimit:10;stroke-dasharray:none;stroke-dashoffset:0;stroke-opacity:1"
     y="-256.54233"
     x="746.86328"
     id="tspan1123"
     sodipodi:role="line">Position</tspan></text>

<text
   transform="scale(0.98584084,-1.0143625)"
   id="text1129"
   y="-153.21832"
   x="732.03107"
   style="font-style:normal;font-weight:normal;font-size:7.39380598px;line-height:1.25;font-family:sans-serif;letter-spacing:0px;word-spacing:0px;opacity:1;vector-effect:none;fill:#522b5a;fill-opacity:1;stroke:none;stroke-width:2;stroke-linecap:butt;stroke-linejoin:miter;stroke-miterlimit:10;stroke-dasharray:none;stroke-dashoffset:0;stroke-opacity:1"
   xml:space="preserve"><tspan
     style="vector-effect:none;fill:#522b5a;fill-opacity:1;stroke:none;stroke-width:2;stroke-linecap:butt;stroke-linejoin:miter;stroke-miterlimit:10;stroke-dasharray:none;stroke-dashoffset:0;stroke-opacity:1"
     y="-153.21832"
     x="732.03107"
     id="tspan1127"
     sodipodi:role="line">Acceleration</tspan></text>

<path
   d="M 586.23935,174.53081 H 777.81509"
   style="fill:none;stroke:#262626;stroke-width:3;stroke-linecap:butt;stroke-linejoin:miter;stroke-miterlimit:10;stroke-dasharray:96.00000238, 0;stroke-dashoffset:0;stroke-opacity:1;marker-end:url(#marker1906)"
   id="path1069"
   inkscape:connector-curvature="0" /><path
   sodipodi:nodetypes="cccccc"
   inkscape:connector-curvature="0"
   d="m 589.67212,199.34118 57.3341,0.105 -0.0237,-24.97077 60.24714,-0.0303 0.0945,-24.21827 57.37847,0.0367"
   style="fill:none;stroke:#7e2f8e;stroke-width:2.00000024;stroke-linecap:butt;stroke-linejoin:miter;stroke-miterlimit:10;stroke-dasharray:none;stroke-opacity:1"
   id="path1046" /><path
   d="M 617.00631,296.13339 V 461.34652"
   style="fill:none;stroke:#262626;stroke-width:0.50000006;stroke-linecap:butt;stroke-linejoin:miter;stroke-miterlimit:10;stroke-dasharray:16.00000004, 0;stroke-dashoffset:0;stroke-opacity:1"
   id="path1181"
   inkscape:connector-curvature="0" /><path
   d="M 677.26592,148.72792 V 277.32429"
   style="fill:none;stroke:#262626;stroke-width:0.50000006;stroke-linecap:butt;stroke-linejoin:miter;stroke-miterlimit:10;stroke-dasharray:15.99999995, 0;stroke-dashoffset:0;stroke-opacity:1"
   id="path1183"
   inkscape:connector-curvature="0" /><path
   d="M 737.52529,148.72792 V 277.32429"
   style="fill:none;stroke:#262626;stroke-width:0.50000006;stroke-linecap:butt;stroke-linejoin:miter;stroke-miterlimit:10;stroke-dasharray:15.99999995, 0;stroke-dashoffset:0;stroke-opacity:1"
   id="path1185"
   inkscape:connector-curvature="0" /><path
   inkscape:connector-curvature="0"
   id="path1187"
   style="fill:none;stroke:#262626;stroke-width:0.50000006;stroke-linecap:butt;stroke-linejoin:miter;stroke-miterlimit:10;stroke-dasharray:15.99999995, 0;stroke-dashoffset:0;stroke-opacity:1"
   d="M 617.00631,148.72792 V 277.32429" /><g
   id="g2000"
   transform="matrix(0.24297054,0,0,0.25,516.3147,230.60196)"
   style="stroke-width:4.05744982"><text
   transform="scale(1,-1)"
   id="text1976"
   y="-234.88847"
   x="405.72137"
   style="font-style:normal;font-weight:normal;font-size:30px;line-height:1.25;font-family:sans-serif;letter-spacing:0px;word-spacing:0px;fill:#000000;fill-opacity:1;stroke:none;stroke-width:3.04308748"
   xml:space="preserve"><tspan
     style="stroke-width:3.04308748"
     y="-234.88847"
     x="405.72137"
     id="tspan1974"
     sodipodi:role="line">0</tspan></text>

<text
   xml:space="preserve"
   style="font-style:normal;font-weight:normal;font-size:30px;line-height:1.25;font-family:sans-serif;letter-spacing:0px;word-spacing:0px;fill:#000000;fill-opacity:1;stroke:none;stroke-width:3.04308748"
   x="639.00366"
   y="-234.88847"
   id="text1980"
   transform="scale(1,-1)"><tspan
     id="tspan1982"
     sodipodi:role="line"
     x="639.00366"
     y="-234.88847"
     style="stroke-width:3.04308748">0.5</tspan></text>

<text
   transform="scale(1,-1)"
   id="text1988"
   y="-234.46367"
   x="900.10284"
   style="font-style:normal;font-weight:normal;font-size:30px;line-height:1.25;font-family:sans-serif;letter-spacing:0px;word-spacing:0px;fill:#000000;fill-opacity:1;stroke:none;stroke-width:3.04308748"
   xml:space="preserve"><tspan
     id="tspan1990"
     style="stroke-width:3.04308748"
     y="-234.46367"
     x="900.10284"
     sodipodi:role="line">1</tspan></text>

</g><g
   transform="matrix(0.24297054,0,0,0.25,516.3147,82.332086)"
   id="g2014"
   style="stroke-width:4.05744982"><text
   xml:space="preserve"
   style="font-style:normal;font-weight:normal;font-size:30px;line-height:1.25;font-family:sans-serif;letter-spacing:0px;word-spacing:0px;fill:#000000;fill-opacity:1;stroke:none;stroke-width:3.04308748"
   x="405.72137"
   y="-234.88847"
   id="text2004"
   transform="scale(1,-1)"><tspan
     sodipodi:role="line"
     id="tspan2002"
     x="405.72137"
     y="-234.88847"
     style="stroke-width:3.04308748">0</tspan></text>

<text
   transform="scale(1,-1)"
   id="text2008"
   y="-234.88847"
   x="639.00366"
   style="font-style:normal;font-weight:normal;font-size:30px;line-height:1.25;font-family:sans-serif;letter-spacing:0px;word-spacing:0px;fill:#000000;fill-opacity:1;stroke:none;stroke-width:3.04308748"
   xml:space="preserve"><tspan
     style="stroke-width:3.04308748"
     y="-234.88847"
     x="639.00366"
     sodipodi:role="line"
     id="tspan2006">0.5</tspan></text>

<text
   xml:space="preserve"
   style="font-style:normal;font-weight:normal;font-size:30px;line-height:1.25;font-family:sans-serif;letter-spacing:0px;word-spacing:0px;fill:#000000;fill-opacity:1;stroke:none;stroke-width:3.04308748"
   x="900.10284"
   y="-234.46367"
   id="text2012"
   transform="scale(1,-1)"><tspan
     sodipodi:role="line"
     x="900.10284"
     y="-234.46367"
     style="stroke-width:3.04308748"
     id="tspan2010">1</tspan></text>

</g></g></svg>