<?xml version="1.0" encoding="UTF-8" standalone="no"?>
<!-- Created with Inkscape (http://www.inkscape.org/) -->

<svg
   xmlns:dc="http://purl.org/dc/elements/1.1/"
   xmlns:cc="http://creativecommons.org/ns#"
   xmlns:rdf="http://www.w3.org/1999/02/22-rdf-syntax-ns#"
   xmlns:svg="http://www.w3.org/2000/svg"
   xmlns="http://www.w3.org/2000/svg"
   xmlns:sodipodi="http://sodipodi.sourceforge.net/DTD/sodipodi-0.dtd"
   xmlns:inkscape="http://www.inkscape.org/namespaces/inkscape"
   version="1.1"
   id="svg2"
   xml:space="preserve"
   width="1061.1509"
   height="1708.792"
   viewBox="0 0 1061.1509 1708.792"
   sodipodi:docname="fig.svg"
   inkscape:version="0.92.3 (2405546, 2018-03-11)"><metadata
     id="metadata8"><rdf:RDF><cc:Work
         rdf:about=""><dc:format>image/svg+xml</dc:format><dc:type
           rdf:resource="http://purl.org/dc/dcmitype/StillImage" /><dc:title></dc:title></cc:Work></rdf:RDF></metadata><defs
     id="defs6"><marker
       inkscape:isstock="true"
       style="overflow:visible"
       id="marker1906"
       refX="0"
       refY="0"
       orient="auto"
       inkscape:stockid="Arrow1Mend"><path
         transform="matrix(-0.4,0,0,-0.4,-4,0)"
         style="fill:#262626;fill-opacity:1;fill-rule:evenodd;stroke:#262626;stroke-width:1.00000003pt;stroke-opacity:1"
         d="M 0,0 5,-5 -12.5,0 5,5 Z"
         id="path1904"
         inkscape:connector-curvature="0" /></marker><marker
       inkscape:isstock="true"
       style="overflow:visible"
       id="marker1848"
       refX="0"
       refY="0"
       orient="auto"
       inkscape:stockid="Arrow1Mend"><path
         transform="matrix(-0.4,0,0,-0.4,-4,0)"
         style="fill:#262626;fill-opacity:1;fill-rule:evenodd;stroke:#262626;stroke-width:1.00000003pt;stroke-opacity:1"
         d="M 0,0 5,-5 -12.5,0 5,5 Z"
         id="path1846"
         inkscape:connector-curvature="0" /></marker><marker
       inkscape:isstock="true"
       style="overflow:visible"
       id="marker1796"
       refX="0"
       refY="0"
       orient="auto"
       inkscape:stockid="Arrow1Mend"><path
         transform="matrix(-0.4,0,0,-0.4,-4,0)"
         style="fill:#262626;fill-opacity:1;fill-rule:evenodd;stroke:#262626;stroke-width:1.00000003pt;stroke-opacity:1"
         d="M 0,0 5,-5 -12.5,0 5,5 Z"
         id="path1794"
         inkscape:connector-curvature="0" /></marker><marker
       inkscape:isstock="true"
       style="overflow:visible"
       id="marker1786"
       refX="0"
       refY="0"
       orient="auto"
       inkscape:stockid="Arrow1Mend"><path
         transform="matrix(-0.4,0,0,-0.4,-4,0)"
         style="fill:#262626;fill-opacity:1;fill-rule:evenodd;stroke:#262626;stroke-width:1.00000003pt;stroke-opacity:1"
         d="M 0,0 5,-5 -12.5,0 5,5 Z"
         id="path1784"
         inkscape:connector-curvature="0" /></marker><marker
       inkscape:stockid="Arrow1Mend"
       orient="auto"
       refY="0"
       refX="0"
       id="Arrow1Mend"
       style="overflow:visible"
       inkscape:isstock="true"
       inkscape:collect="always"><path
         id="path1331"
         d="M 0,0 5,-5 -12.5,0 5,5 Z"
         style="fill:#262626;fill-opacity:1;fill-rule:evenodd;stroke:#262626;stroke-width:1.00000003pt;stroke-opacity:1"
         transform="matrix(-0.4,0,0,-0.4,-4,0)"
         inkscape:connector-curvature="0" /></marker><marker
       inkscape:isstock="true"
       style="overflow:visible"
       id="marker1690"
       refX="0"
       refY="0"
       orient="auto"
       inkscape:stockid="Arrow1Lend"><path
         transform="matrix(-0.8,0,0,-0.8,-10,0)"
         style="fill:#262626;fill-opacity:1;fill-rule:evenodd;stroke:#262626;stroke-width:1.00000003pt;stroke-opacity:1"
         d="M 0,0 5,-5 -12.5,0 5,5 Z"
         id="path1688"
         inkscape:connector-curvature="0" /></marker><marker
       inkscape:isstock="true"
       style="overflow:visible"
       id="marker1656"
       refX="0"
       refY="0"
       orient="auto"
       inkscape:stockid="Arrow1Lend"><path
         transform="matrix(-0.8,0,0,-0.8,-10,0)"
         style="fill:#262626;fill-opacity:1;fill-rule:evenodd;stroke:#262626;stroke-width:1.00000003pt;stroke-opacity:1"
         d="M 0,0 5,-5 -12.5,0 5,5 Z"
         id="path1654"
         inkscape:connector-curvature="0" /></marker><marker
       inkscape:isstock="true"
       style="overflow:visible"
       id="marker1628"
       refX="0"
       refY="0"
       orient="auto"
       inkscape:stockid="Arrow1Lend"><path
         transform="matrix(-0.8,0,0,-0.8,-10,0)"
         style="fill:#262626;fill-opacity:1;fill-rule:evenodd;stroke:#262626;stroke-width:1.00000003pt;stroke-opacity:1"
         d="M 0,0 5,-5 -12.5,0 5,5 Z"
         id="path1626"
         inkscape:connector-curvature="0" /></marker><marker
       inkscape:isstock="true"
       style="overflow:visible"
       id="marker1606"
       refX="0"
       refY="0"
       orient="auto"
       inkscape:stockid="Arrow1Lend"><path
         transform="matrix(-0.8,0,0,-0.8,-10,0)"
         style="fill:#262626;fill-opacity:1;fill-rule:evenodd;stroke:#262626;stroke-width:1.00000003pt;stroke-opacity:1"
         d="M 0,0 5,-5 -12.5,0 5,5 Z"
         id="path1604"
         inkscape:connector-curvature="0" /></marker></defs><sodipodi:namedview
     pagecolor="#ffffff"
     bordercolor="#666666"
     borderopacity="1"
     objecttolerance="10"
     gridtolerance="10"
     guidetolerance="10"
     inkscape:pageopacity="0"
     inkscape:pageshadow="2"
     inkscape:window-width="2597"
     inkscape:window-height="1491"
     id="namedview4"
     showgrid="false"
     inkscape:zoom="0.83886262"
     inkscape:cx="323.25637"
     inkscape:cy="1071.8758"
     inkscape:window-x="67"
     inkscape:window-y="34"
     inkscape:window-maximized="0"
     inkscape:current-layer="g10"
     fit-margin-top="0"
     fit-margin-left="0"
     fit-margin-right="0"
     fit-margin-bottom="0" /><g
     id="g10"
     inkscape:groupmode="layer"
     inkscape:label="fig"
     transform="matrix(1.3333333,0,0,-1.3333333,-383.72087,1255.9257)"><path
       inkscape:connector-curvature="0"
       id="path26"
       style="fill:none;stroke:#262626;stroke-width:0.5;stroke-linecap:butt;stroke-linejoin:miter;stroke-miterlimit:10;stroke-dasharray:16.00000003, 0;stroke-dashoffset:0;stroke-opacity:1"
       d="M 662.431,281.0918 V 941.9443" /><path
       inkscape:connector-curvature="0"
       id="path28"
       style="fill:none;stroke:#262626;stroke-width:0.5;stroke-linecap:butt;stroke-linejoin:miter;stroke-miterlimit:10;stroke-dasharray:16.00000003, 0;stroke-dashoffset:0;stroke-opacity:1"
       d="M 910.442,281.0918 V 941.9443" /><path
       inkscape:connector-curvature="0"
       id="path38"
       style="fill:none;stroke:#262626;stroke-width:0.5;stroke-linecap:butt;stroke-linejoin:miter;stroke-miterlimit:10;stroke-dasharray:none;stroke-opacity:1"
       d="m 414.419,781.635 v -9.914" /><path
       inkscape:connector-curvature="0"
       id="path42"
       style="fill:none;stroke:#262626;stroke-width:0.5;stroke-linecap:butt;stroke-linejoin:miter;stroke-miterlimit:10;stroke-dasharray:none;stroke-opacity:1"
       d="m 662.431,781.635 v -9.914" /><path
       inkscape:connector-curvature="0"
       id="path46"
       style="fill:none;stroke:#262626;stroke-width:0.5;stroke-linecap:butt;stroke-linejoin:miter;stroke-miterlimit:10;stroke-dasharray:none;stroke-opacity:1"
       d="m 910.442,781.635 v -9.914" /><path
       sodipodi:nodetypes="ccccccccccccccccccccccccccccccccccccccccccccccccccccccccccccccccccccccccccccccccccccccccccccccccccccccccccccccccccccccccccccccccccccccccccccccccc"
       inkscape:connector-curvature="0"
       id="path134"
       style="fill:none;stroke:#0072bd;stroke-width:2;stroke-linecap:butt;stroke-linejoin:miter;stroke-miterlimit:10;stroke-dasharray:none;stroke-opacity:1"
       d="m 305.294,754.68852 4.96,-1.92264 4.961,-1.85291 4.96,-1.76825 4.96,-1.68853 4.96,-1.60885 4.961,-1.52416 4.96,-1.44447 4.96,-1.34985 4.96,-1.27014 4.961,-1.17551 4.96,-1.09083 4.96,-0.99619 4.96,-0.90654 4.96,-0.81189 4.961,-0.71726 4.96,-0.62261 4.96,-0.53295 4.96,-0.43336 4.961,-0.33372 4.96,-0.24407 4.96,-0.14444 4.96,-0.0498 4.961,0.0498 4.96,0.14444 4.96,0.24407 4.96,0.33372 4.96,0.43336 4.961,0.53295 4.96,0.62261 4.96,0.71726 4.96,0.81189 4.961,0.90654 4.96,0.99619 4.96,1.09083 4.96,1.17551 4.96,1.27014 4.961,1.34985 4.96,1.44447 4.96,1.52416 4.96,1.60885 4.961,1.68853 4.96,1.76825 4.96,1.85291 4.96,1.92264 4.961,1.99736 4.96,2.07207 4.96,2.14182 4.96,2.21154 4.961,2.27629 4.96,2.34105 4.96,2.40579 4.96,2.4606 4.96,2.52036 4.961,2.57017 4.96,2.62496 4.96,2.67476 4.96,2.7196 4.961,2.76443 4.96,2.80428 4.96,2.84412 4.96,2.87899 4.96,2.91385 4.961,2.94374 4.96,2.96865 4.96,2.99355 4.96,3.01347 4.961,3.0334 4.96,3.04835 4.96,3.0583 4.96,3.06826 4.961,3.07822 4.96,3.07823 4.96,3.07823 4.96,3.07324 4.96,3.06827 4.961,3.0583 4.96,3.04834 4.96,3.03341 4.96,3.01347 4.961,2.99354 4.96,2.96865 4.96,2.94374 4.96,2.91386 4.961,2.87898 4.96,2.84412 4.96,2.80429 4.96,2.76442 4.96,2.7196 4.961,2.67476 4.96,2.62497 4.96,2.57515 4.96,2.51537 4.961,2.46558 4.96,2.40081 4.96,2.34105 4.96,2.27629 4.961,2.21154 4.96,2.14182 4.96,2.07207 4.96,1.99736 4.96,1.92763 4.961,1.84794 4.96,1.76823 4.96,1.68853 4.96,1.60886 4.961,1.52915 4.96,1.4395 4.96,1.35481 4.96,1.26517 4.961,1.1755 4.96,1.09082 4.96,0.99619 4.96,0.90653 4.96,0.8119 4.961,0.71726 4.96,0.6276 4.96,0.52798 4.96,0.43334 4.961,0.33871 4.96,0.23908 4.96,0.14444 4.96,0.0498 4.961,-0.0498 4.96,-0.14444 4.96,-0.23908 4.96,-0.33871 4.96,-0.43334 4.961,-0.52798 4.96,-0.6276 4.96,-0.71726 4.96,-0.8119 4.961,-0.90653 4.96,-0.99619 4.96,-1.09082 4.96,-1.1755 4.961,-1.26517 4.96,-1.35481 4.96,-1.4395 4.96,-1.52915 4.961,-1.60886 4.963,-1.68853 4.96,-1.76823 4.96,-1.84794 4.96,-1.92763" /><path
       d="M 287.79066,732.1995 H 1076.2638"
       style="fill:none;stroke:#262626;stroke-width:3;stroke-linecap:butt;stroke-linejoin:miter;stroke-miterlimit:10;stroke-dasharray:96.0000021, 0;stroke-dashoffset:0;stroke-opacity:1;marker-end:url(#marker1848)"
       id="path1019"
       inkscape:connector-curvature="0" /><text
       xml:space="preserve"
       style="font-style:normal;font-weight:normal;font-size:30px;line-height:1.25;font-family:sans-serif;letter-spacing:0px;word-spacing:0px;opacity:1;vector-effect:none;fill:#0072bd;fill-opacity:1;stroke:none;stroke-width:2;stroke-linecap:butt;stroke-linejoin:miter;stroke-miterlimit:10;stroke-dasharray:none;stroke-dashoffset:0;stroke-opacity:1"
       x="902.82214"
       y="-874.61273"
       id="text1081"
       transform="scale(1,-1)"><tspan
         sodipodi:role="line"
         id="tspan1079"
         x="902.82214"
         y="-874.61273"
         style="vector-effect:none;fill:#0072bd;fill-opacity:1;stroke:none;stroke-width:2;stroke-linecap:butt;stroke-linejoin:miter;stroke-miterlimit:10;stroke-dasharray:none;stroke-dashoffset:0;stroke-opacity:1">Position</tspan></text>
<path
       sodipodi:nodetypes="ccccccccccccccccccccccccccccccccccccccccccccccccccccccccccccccccccccccccccccccccccccccccccccccccccccccccccccccccccccccccccccccccccccccccccccccccc"
       inkscape:connector-curvature="0"
       id="path136"
       style="fill:none;stroke:#d95319;stroke-width:2;stroke-linecap:butt;stroke-linejoin:miter;stroke-miterlimit:10;stroke-dasharray:none;stroke-opacity:1"
       d="m 305.294,522.01946 4.96,2.39895 4.961,2.45911 4.96,2.51455 4.96,2.56997 4.96,2.62221 4.961,2.66974 4.96,2.71722 4.96,2.76156 4.96,2.80115 4.961,2.84074 4.96,2.87558 4.96,2.90882 4.96,2.93891 4.96,2.96583 4.961,2.98959 4.96,3.01017 4.96,3.02916 4.96,3.04343 4.961,3.05608 4.96,3.064 4.96,3.07193 4.96,3.07351 4.961,3.0751 4.96,3.07033 4.96,3.06559 4.96,3.05609 4.96,3.04342 4.961,3.02758 4.96,3.01176 4.96,2.98958 4.96,2.96425 4.961,2.93891 4.96,2.90883 4.96,2.87557 4.96,2.84074 4.96,2.80274 4.961,2.75997 4.96,2.71723 4.96,2.6713 4.96,2.62064 4.961,2.56997 4.96,2.51613 4.96,2.45753 4.96,2.40054 4.961,2.3372 4.96,2.27385 4.96,2.20735 4.96,2.14085 4.961,2.06801 4.96,1.99675 4.96,1.92232 4.96,1.84632 4.96,1.76874 4.961,1.68797 4.96,1.60563 4.96,1.5233 4.96,1.43937 4.961,1.35228 4.96,1.26519 4.96,1.17651 4.96,1.08626 4.96,0.996 4.961,0.90416 4.96,0.81073 4.96,0.71732 4.96,0.62388 4.961,0.52888 4.96,0.43387 4.96,0.33728 4.96,0.24068 4.961,0.1441 4.96,0.0491 4.96,-0.0491 4.96,-0.1441 4.96,-0.24068 4.961,-0.33728 4.96,-0.43387 4.96,-0.52888 4.96,-0.62388 4.961,-0.71732 4.96,-0.81073 4.96,-0.90416 4.96,-0.996 4.961,-1.08626 4.96,-1.17651 4.96,-1.26519 4.96,-1.35228 4.96,-1.43937 4.961,-1.5233 4.96,-1.60563 4.96,-1.68797 4.96,-1.76874 4.961,-1.84632 4.96,-1.92232 4.96,-1.99675 4.96,-2.06801 4.961,-2.14085 4.96,-2.20735 4.96,-2.27385 4.96,-2.3372 4.96,-2.40054 4.961,-2.45753 4.96,-2.51613 4.96,-2.56997 4.96,-2.62064 4.961,-2.6713 4.96,-2.71723 4.96,-2.75997 4.96,-2.80274 4.961,-2.84074 4.96,-2.87557 4.96,-2.90883 4.96,-2.93891 4.96,-2.96425 4.961,-2.98958 4.96,-3.01176 4.96,-3.02758 4.96,-3.04342 4.961,-3.05609 4.96,-3.06559 4.96,-3.07033 4.96,-3.0751 4.961,-3.07351 4.96,-3.07193 4.96,-3.064 4.96,-3.05608 4.96,-3.04343 4.961,-3.02916 4.96,-3.01017 4.96,-2.98959 4.96,-2.96583 4.961,-2.93891 4.96,-2.90882 4.96,-2.87558 4.96,-2.84074 4.961,-2.80115 4.96,-2.76156 4.96,-2.71722 4.96,-2.66974 4.961,-2.62221 4.963,-2.56997 4.96,-2.51455 4.96,-2.45911 4.96,-2.39895" /><path
       d="M 287.79066,584.39875 H 1076.2638"
       style="fill:none;stroke:#262626;stroke-width:3;stroke-linecap:butt;stroke-linejoin:miter;stroke-miterlimit:10;stroke-dasharray:96.00000188, 0;stroke-dashoffset:0;stroke-opacity:1;marker-end:url(#marker1796)"
       id="path1013"
       inkscape:connector-curvature="0" /><text
       transform="scale(1,-1)"
       id="text1107"
       y="-598.89044"
       x="902.0683"
       style="font-style:normal;font-weight:normal;font-size:30px;line-height:1.25;font-family:sans-serif;letter-spacing:0px;word-spacing:0px;opacity:1;vector-effect:none;fill:#803d20;fill-opacity:1;stroke:none;stroke-width:2;stroke-linecap:butt;stroke-linejoin:miter;stroke-miterlimit:10;stroke-dasharray:none;stroke-dashoffset:0;stroke-opacity:1"
       xml:space="preserve"><tspan
         style="vector-effect:none;fill:#803d20;fill-opacity:1;stroke:none;stroke-width:2;stroke-linecap:butt;stroke-linejoin:miter;stroke-miterlimit:10;stroke-dasharray:none;stroke-dashoffset:0;stroke-opacity:1"
         y="-598.89044"
         x="902.0683"
         id="tspan1105"
         sodipodi:role="line">Velocity</tspan></text>
<path
       sodipodi:nodetypes="ccccccccccccccccccccccccccccccccccccccccccccccccccccccccccccccccccccccccccccccccccccccccccccccccccccccccccccccccccccccccccccccccccccccccccccccccc"
       inkscape:connector-curvature="0"
       id="path138"
       style="fill:none;stroke:#edb120;stroke-width:3.75000024;stroke-linecap:butt;stroke-linejoin:miter;stroke-miterlimit:10;stroke-dasharray:none;stroke-opacity:1"
       d="m 305.294,463.64779 4.96,1.92373 4.961,1.84804 4.96,1.76934 4.96,1.68963 4.96,1.6079 4.961,1.52464 4.96,1.4404 4.96,1.35362 4.96,1.26634 4.961,1.17804 4.96,1.08775 4.96,0.99641 4.96,0.90511 4.96,0.81227 4.961,0.71844 4.96,0.62357 4.96,0.52924 4.96,0.43389 4.961,0.33752 4.96,0.24166 4.96,0.1448 4.96,0.0485 4.961,-0.0485 4.96,-0.1448 4.96,-0.24166 4.96,-0.33752 4.96,-0.43389 4.961,-0.52924 4.96,-0.62357 4.96,-0.71844 4.96,-0.81227 4.961,-0.90511 4.96,-0.99641 4.96,-1.08775 4.96,-1.17804 4.96,-1.26634 4.961,-1.35362 4.96,-1.4404 4.96,-1.52464 4.96,-1.6079 4.961,-1.68963 4.96,-1.76934 4.96,-1.84804 4.96,-1.92373 4.961,-1.99889 4.96,-2.07105 4.96,-2.14167 4.96,-2.20979 4.961,-2.27638 4.96,-2.33995 4.96,-2.40201 4.96,-2.46053 4.96,-2.51804 4.961,-2.57202 4.96,-2.624 4.96,-2.67293 4.96,-2.71985 4.961,-2.76375 4.96,-2.8046 4.96,-2.84346 4.96,-2.87878 4.96,-2.91106 4.961,-2.94184 4.96,-2.96807 4.96,-2.9923 4.96,-3.01347 4.961,-3.03164 4.96,-3.04678 4.96,-3.05889 4.96,-3.06797 4.961,-3.07402 4.96,-3.07705 4.96,-3.07705 4.96,-3.07402 4.96,-3.06797 4.961,-3.05889 4.96,-3.04627 4.96,-3.03164 4.96,-3.01348 4.961,-2.9928 4.96,-2.96807 4.96,-2.94133 4.96,-2.91157 4.961,-2.87877 4.96,-2.84296 4.96,-2.80511 4.96,-2.76324 4.96,-2.71985 4.961,-2.67344 4.96,-2.62349 4.96,-2.57253 4.96,-2.51754 4.961,-2.46104 4.96,-2.4015 4.96,-2.34045 4.96,-2.27588 4.961,-2.21029 4.96,-2.14167 4.96,-2.07104 4.96,-1.9984 4.96,-1.92422 4.961,-1.84754 4.96,-1.76985 4.96,-1.68963 4.96,-1.60789 4.961,-1.52466 4.96,-1.43988 4.96,-1.35413 4.96,-1.26634 4.961,-1.17754 4.96,-1.08774 4.96,-0.99692 4.96,-0.90511 4.96,-0.81177 4.961,-0.71843 4.96,-0.62403 4.96,-0.52914 4.96,-0.43358 4.961,-0.33778 4.96,-0.24146 4.96,-0.14505 4.96,-0.0483 4.961,0.0483 4.96,0.14505 4.96,0.24146 4.96,0.33778 4.96,0.43358 4.961,0.52914 4.96,0.62403 4.96,0.71843 4.96,0.81177 4.961,0.90511 4.96,0.99692 4.96,1.08774 4.96,1.17754 4.961,1.26634 4.96,1.35413 4.96,1.43988 4.96,1.52466 4.961,1.60789 4.963,1.68963 4.96,1.76985 4.96,1.84754 4.96,1.92422" /><path
       d="M 287.79066,388.167 H 1076.2638"
       style="fill:none;stroke:#262626;stroke-width:3.75000048;stroke-linecap:butt;stroke-linejoin:miter;stroke-miterlimit:10;stroke-dasharray:none;stroke-dashoffset:0;stroke-opacity:1;marker-end:url(#marker1786)"
       id="path1029"
       inkscape:connector-curvature="0" /><text
       xml:space="preserve"
       style="font-style:normal;font-weight:normal;font-size:30px;line-height:1.25;font-family:sans-serif;letter-spacing:0px;word-spacing:0px;opacity:1;vector-effect:none;fill:#896c23;fill-opacity:1;stroke:none;stroke-width:2;stroke-linecap:butt;stroke-linejoin:miter;stroke-miterlimit:10;stroke-dasharray:none;stroke-dashoffset:0;stroke-opacity:1"
       x="835.05493"
       y="-332.73367"
       id="text1113"
       transform="scale(1,-1)"><tspan
         sodipodi:role="line"
         id="tspan1111"
         x="835.05493"
         y="-332.73367"
         style="vector-effect:none;fill:#896c23;fill-opacity:1;stroke:none;stroke-width:2;stroke-linecap:butt;stroke-linejoin:miter;stroke-miterlimit:10;stroke-dasharray:none;stroke-dashoffset:0;stroke-opacity:1">Acceleration</tspan></text>
<path
       inkscape:connector-curvature="0"
       id="path62"
       style="fill:none;stroke:#262626;stroke-width:3;stroke-linecap:butt;stroke-linejoin:miter;stroke-miterlimit:10;stroke-dasharray:96.00000232, 0;stroke-dashoffset:0;stroke-opacity:1;marker-end:url(#Arrow1Mend)"
       d="M 287.79066,-6.821418 H 1076.2638" /><path
       id="path1011"
       style="fill:none;stroke:#7e2f8e;stroke-width:2;stroke-linecap:butt;stroke-linejoin:miter;stroke-miterlimit:10;stroke-dasharray:none;stroke-opacity:1"
       d="m 305.294,15.068752 4.96,-1.94491 4.961,-1.85407 4.96,-1.76324 4.96,-1.67472 4.96,-1.58155 4.961,-1.49304 4.96,-1.4022 4.96,-1.31136 4.96,-1.22052 4.961,-1.13201 4.96,-1.03884 4.96,-0.95033 4.96,-0.85949 4.96,-0.76865 4.961,-0.6778 4.96,-0.5893 4.96,-0.49613 4.96,-0.40761 4.961,-0.31678 4.96,-0.22594 4.96,-0.13509 4.96,-0.0466 4.961,0.0466 4.96,0.13509 4.96,0.22594 4.96,0.31678 4.96,0.40761 4.961,0.49613 4.96,0.5893 4.96,0.6778 4.96,0.76865 4.961,0.85949 4.96,0.95033 4.96,1.03884 4.96,1.13201 4.96,1.22052 4.961,1.31136 4.96,1.4022 4.96,1.49304 4.96,1.58155 4.961,1.67472 4.96,1.76324 4.96,1.85407 4.96,1.94491 4.961,2.03576 4.96,2.12426 4.96,2.21743 248.2768,140.543648 4.96,2.2174 4.96,2.1243 4.961,2.0358 4.96,1.9449 4.96,1.854 4.96,1.7633 4.961,1.6747 4.96,1.5816 4.96,1.493 4.96,1.4022 4.961,1.3114 4.96,1.2205 4.96,1.132 4.96,1.0388 4.96,0.9504 4.961,0.8594 4.96,0.7687 4.96,0.6778 4.96,0.5893 4.961,0.4961 4.96,0.4076 4.96,0.3168 4.96,0.226 4.96,0.135 4.961,0.047 4.96,-0.047 4.96,-0.135 4.96,-0.226 4.961,-0.3168 4.96,-0.4076 4.96,-0.4961 4.96,-0.5893 4.961,-0.6778 4.96,-0.7687 4.96,-0.8594 4.96,-0.9504 4.96,-1.0388 4.961,-1.132 4.96,-1.2205 4.96,-1.3114 4.96,-1.4022 4.961,-1.493 4.96,-1.5816 4.96,-1.6747 4.96,-1.7633 4.961,-1.854 4.96,-1.9449"
       inkscape:connector-curvature="0"
       sodipodi:nodetypes="cccccccccccccccccccccccccccccccccccccccccccccccccccccccccccccccccccccccccccccccccccccccccccccccc" /><text
       transform="scale(1,-1)"
       id="text1125"
       y="-137.46593"
       x="905.35095"
       style="font-style:normal;font-weight:normal;font-size:30px;line-height:1.25;font-family:sans-serif;letter-spacing:0px;word-spacing:0px;opacity:1;vector-effect:none;fill:#522b5a;fill-opacity:1;stroke:none;stroke-width:2;stroke-linecap:butt;stroke-linejoin:miter;stroke-miterlimit:10;stroke-dasharray:none;stroke-dashoffset:0;stroke-opacity:1"
       xml:space="preserve"><tspan
         style="vector-effect:none;fill:#522b5a;fill-opacity:1;stroke:none;stroke-width:2;stroke-linecap:butt;stroke-linejoin:miter;stroke-miterlimit:10;stroke-dasharray:none;stroke-dashoffset:0;stroke-opacity:1"
         y="-137.46593"
         x="905.35095"
         id="tspan1123"
         sodipodi:role="line">Position</tspan></text>
<text
       transform="scale(1,-1)"
       id="text1129"
       y="281.76605"
       x="845.1701"
       style="font-style:normal;font-weight:normal;font-size:30px;line-height:1.25;font-family:sans-serif;letter-spacing:0px;word-spacing:0px;opacity:1;vector-effect:none;fill:#522b5a;fill-opacity:1;stroke:none;stroke-width:2;stroke-linecap:butt;stroke-linejoin:miter;stroke-miterlimit:10;stroke-dasharray:none;stroke-dashoffset:0;stroke-opacity:1"
       xml:space="preserve"><tspan
         style="vector-effect:none;fill:#522b5a;fill-opacity:1;stroke:none;stroke-width:2;stroke-linecap:butt;stroke-linejoin:miter;stroke-miterlimit:10;stroke-dasharray:none;stroke-dashoffset:0;stroke-opacity:1"
         y="281.76605"
         x="845.1701"
         id="tspan1127"
         sodipodi:role="line">Acceleration</tspan></text>
<path
       d="M 287.79066,-205.31856 H 1076.2638"
       style="fill:none;stroke:#262626;stroke-width:3;stroke-linecap:butt;stroke-linejoin:miter;stroke-miterlimit:10;stroke-dasharray:96.00000232, 0;stroke-dashoffset:0;stroke-opacity:1;marker-end:url(#marker1906)"
       id="path1069"
       inkscape:connector-curvature="0" /><path
       sodipodi:nodetypes="cccccc"
       inkscape:connector-curvature="0"
       d="m 301.919,-106.07704 235.97141,0.41999 -0.0976,-99.88309 247.9607,-0.12115 0.38895,-96.87308 236.15404,0.14679"
       style="fill:none;stroke:#7e2f8e;stroke-width:2;stroke-linecap:butt;stroke-linejoin:miter;stroke-miterlimit:10;stroke-dasharray:none;stroke-opacity:1"
       id="path1046" /><path
       d="M 414.419,281.0918 V 941.9443"
       style="fill:none;stroke:#262626;stroke-width:0.5;stroke-linecap:butt;stroke-linejoin:miter;stroke-miterlimit:10;stroke-dasharray:16.00000003, 0;stroke-dashoffset:0;stroke-opacity:1"
       id="path1181"
       inkscape:connector-curvature="0" /><path
       d="M 662.431,-308.53009 V 205.85537"
       style="fill:none;stroke:#262626;stroke-width:0.49999997;stroke-linecap:butt;stroke-linejoin:miter;stroke-miterlimit:10;stroke-dasharray:15.99999994, 0;stroke-dashoffset:0;stroke-opacity:1"
       id="path1183"
       inkscape:connector-curvature="0" /><path
       d="M 910.442,-308.53009 V 205.85537"
       style="fill:none;stroke:#262626;stroke-width:0.49999997;stroke-linecap:butt;stroke-linejoin:miter;stroke-miterlimit:10;stroke-dasharray:15.99999994, 0;stroke-dashoffset:0;stroke-opacity:1"
       id="path1185"
       inkscape:connector-curvature="0" /><path
       inkscape:connector-curvature="0"
       id="path1187"
       style="fill:none;stroke:#262626;stroke-width:0.49999997;stroke-linecap:butt;stroke-linejoin:miter;stroke-miterlimit:10;stroke-dasharray:15.99999994, 0;stroke-dashoffset:0;stroke-opacity:1"
       d="M 414.419,-308.53009 V 205.85537" /><g
       id="g2000"
       transform="translate(0,18.966041)"><text
         transform="scale(1,-1)"
         id="text1976"
         y="-234.88847"
         x="405.72137"
         style="font-style:normal;font-weight:normal;font-size:30px;line-height:1.25;font-family:sans-serif;letter-spacing:0px;word-spacing:0px;fill:#000000;fill-opacity:1;stroke:none;stroke-width:0.75"
         xml:space="preserve"><tspan
           style="stroke-width:0.75"
           y="-234.88847"
           x="405.72137"
           id="tspan1974"
           sodipodi:role="line">0</tspan></text>
<text
         xml:space="preserve"
         style="font-style:normal;font-weight:normal;font-size:30px;line-height:1.25;font-family:sans-serif;letter-spacing:0px;word-spacing:0px;fill:#000000;fill-opacity:1;stroke:none;stroke-width:0.75"
         x="639.00366"
         y="-234.88847"
         id="text1980"
         transform="scale(1,-1)"><tspan
           id="tspan1982"
           sodipodi:role="line"
           x="639.00366"
           y="-234.88847"
           style="stroke-width:0.75">0.5</tspan></text>
<text
         transform="scale(1,-1)"
         id="text1988"
         y="-234.46367"
         x="900.10284"
         style="font-style:normal;font-weight:normal;font-size:30px;line-height:1.25;font-family:sans-serif;letter-spacing:0px;word-spacing:0px;fill:#000000;fill-opacity:1;stroke:none;stroke-width:0.75"
         xml:space="preserve"><tspan
           id="tspan1990"
           style="stroke-width:0.75"
           y="-234.46367"
           x="900.10284"
           sodipodi:role="line">1</tspan></text>
</g><g
       transform="translate(0,-574.11344)"
       id="g2014"><text
         xml:space="preserve"
         style="font-style:normal;font-weight:normal;font-size:30px;line-height:1.25;font-family:sans-serif;letter-spacing:0px;word-spacing:0px;fill:#000000;fill-opacity:1;stroke:none;stroke-width:0.75"
         x="405.72137"
         y="-234.88847"
         id="text2004"
         transform="scale(1,-1)"><tspan
           sodipodi:role="line"
           id="tspan2002"
           x="405.72137"
           y="-234.88847"
           style="stroke-width:0.75">0</tspan></text>
<text
         transform="scale(1,-1)"
         id="text2008"
         y="-234.88847"
         x="639.00366"
         style="font-style:normal;font-weight:normal;font-size:30px;line-height:1.25;font-family:sans-serif;letter-spacing:0px;word-spacing:0px;fill:#000000;fill-opacity:1;stroke:none;stroke-width:0.75"
         xml:space="preserve"><tspan
           style="stroke-width:0.75"
           y="-234.88847"
           x="639.00366"
           sodipodi:role="line"
           id="tspan2006">0.5</tspan></text>
<text
         xml:space="preserve"
         style="font-style:normal;font-weight:normal;font-size:30px;line-height:1.25;font-family:sans-serif;letter-spacing:0px;word-spacing:0px;fill:#000000;fill-opacity:1;stroke:none;stroke-width:0.75"
         x="900.10284"
         y="-234.46367"
         id="text2012"
         transform="scale(1,-1)"><tspan
           sodipodi:role="line"
           x="900.10284"
           y="-234.46367"
           style="stroke-width:0.75"
           id="tspan2010">1</tspan></text>
</g></g></svg>